<?xml version="1.0" standalone="no"?>
<!DOCTYPE svg PUBLIC "-//W3C//DTD SVG 20010904//EN"
 "http://www.w3.org/TR/2001/REC-SVG-20010904/DTD/svg10.dtd">
<svg version="1.0" xmlns="http://www.w3.org/2000/svg"
 width="924.000000pt" height="442.000000pt" viewBox="0 0 924.000000 442.000000"
 preserveAspectRatio="xMidYMid meet">

<g transform="translate(0.000000,442.000000) scale(0.100000,-0.100000)"
fill="#000000" stroke="none">
<path d="M6370 4253 c0 -10 -102 -257 -155 -378 -7 -16 -21 -55 -31 -85 -9
-30 -21 -59 -25 -64 -5 -6 -9 -17 -9 -26 0 -9 -17 -52 -39 -95 -59 -121 -113
-273 -106 -298 4 -15 3 -18 -3 -9 -10 15 -8 19 -49 -92 -20 -56 -22 -70 -11
-78 10 -8 9 -9 -3 -5 -13 4 -29 -23 -74 -131 -31 -75 -86 -207 -122 -292 -36
-85 -71 -168 -78 -185 -7 -16 -21 -55 -31 -85 -9 -30 -21 -59 -25 -64 -5 -6
-9 -19 -9 -31 0 -11 -6 -29 -13 -40 -7 -11 -25 -49 -39 -85 -14 -36 -40 -101
-58 -145 -18 -44 -33 -92 -33 -107 0 -15 -4 -26 -10 -25 -11 2 -49 -91 -81
-200 -22 -76 -30 -87 -41 -53 -3 11 -10 20 -15 20 -5 0 -11 13 -15 30 -8 35
-8 35 -40 14 -35 -23 -32 -38 7 -30 30 6 30 5 15 -12 -24 -26 -21 -39 3 -17
23 21 24 19 9 -23 l-11 -32 -38 49 c-102 129 -234 188 -448 198 -100 5 -112 4
-106 -10 3 -9 12 -13 20 -10 8 3 14 1 14 -5 0 -6 -5 -12 -12 -14 -21 -7 3 -30
26 -24 20 5 20 4 3 -9 -28 -21 -18 -51 17 -47 38 4 134 -17 176 -38 54 -28
210 -188 210 -215 0 -5 7 -17 17 -27 15 -17 15 -18 -5 -18 -12 0 -22 3 -21 8
3 18 -14 51 -24 45 -6 -3 -7 -1 -3 5 8 14 -10 52 -25 52 -6 0 -6 -6 0 -18 7
-13 6 -23 -1 -30 -14 -14 -54 -16 -62 -4 -3 5 8 6 24 4 27 -4 28 -2 27 32 -1
22 -6 36 -14 36 -7 0 -13 4 -13 10 0 19 -93 95 -139 113 -46 19 -144 27 -157
14 -4 -4 0 -22 9 -40 11 -21 16 -25 15 -12 -3 23 9 45 24 45 7 0 6 -5 -2 -15
-7 -9 -10 -25 -6 -41 5 -19 4 -24 -5 -18 -9 5 -10 2 -6 -10 4 -10 7 -20 7 -22
0 -3 3 -3 8 -1 4 3 7 -7 8 -22 0 -15 26 -90 56 -166 31 -77 66 -169 77 -205
21 -60 24 -65 53 -67 18 -1 38 3 45 9 11 8 12 7 7 -6 -4 -10 -18 -16 -40 -16
-37 0 -39 -2 -24 -31 6 -11 21 -19 35 -19 29 0 35 -33 9 -48 -14 -8 -11 -19
22 -90 l38 -81 27 65 c28 67 92 250 94 269 1 14 37 87 51 105 7 8 28 62 47
118 20 57 43 112 53 123 16 17 33 19 203 19 l185 0 30 28 31 27 -24 -27 -24
-28 97 0 c84 0 101 3 126 22 17 12 30 25 30 30 0 4 -132 8 -293 8 -162 0 -296
3 -300 6 -3 3 1 24 8 47 7 23 19 60 25 82 7 22 21 58 31 80 36 80 103 253 149
390 76 219 118 331 146 387 14 28 33 74 41 101 8 28 21 60 28 71 20 31 47 130
36 134 -5 2 -4 13 2 26 10 22 13 18 34 -43 12 -36 33 -88 47 -116 13 -27 33
-71 45 -97 19 -44 24 -48 55 -48 19 0 38 5 41 10 8 12 35 -6 35 -22 0 -6 -6
-6 -14 1 -9 8 -16 8 -20 2 -4 -6 -14 -7 -23 -4 -11 4 -14 3 -9 -5 5 -8 2 -10
-8 -6 -25 9 -20 -32 6 -56 12 -11 17 -20 10 -20 -14 0 -11 -10 66 -176 33 -71
76 -169 97 -219 21 -49 63 -144 95 -210 90 -187 103 -222 104 -267 l1 -43
-205 -5 -206 -5 -34 -27 -35 -28 270 -1 c149 -1 281 -2 294 -3 21 -1 30 -14
62 -91 20 -49 51 -124 69 -165 18 -41 39 -99 49 -127 l16 -53 83 0 c57 0 82 4
82 12 0 9 3 9 12 0 13 -13 105 -16 247 -5 90 6 91 6 78 27 -8 12 -33 65 -56
118 -24 54 -57 112 -74 129 -18 18 -24 29 -15 26 15 -5 15 -1 -2 49 -11 30
-25 67 -33 82 -8 15 -31 63 -52 107 -24 50 -40 73 -43 63 -4 -19 -22 -25 -22
-8 0 5 5 20 11 33 9 20 5 37 -26 105 -24 51 -44 82 -53 82 -24 0 -82 23 -82
32 0 15 28 20 50 8 12 -6 24 -9 27 -6 10 9 -18 36 -37 36 -10 0 -20 6 -23 13
-3 11 -47 -92 -47 -113 0 -5 12 -11 28 -13 15 -3 0 -3 -32 -1 -44 3 -71 12
-105 33 -25 16 -86 48 -134 71 -48 24 -86 44 -85 46 5 4 119 -33 140 -46 28
-16 54 31 110 194 37 109 39 155 10 222 -18 39 -30 53 -56 62 -60 22 -91 10
-109 -40 -4 -10 -11 -18 -18 -18 -7 0 -8 7 -4 18 4 9 12 29 17 45 11 31 32 34
93 12 21 -8 41 -12 44 -10 6 7 -70 183 -85 196 -8 6 -14 8 -14 4 0 -4 -7 -2
-15 5 -8 7 -21 10 -30 7 -15 -6 -45 17 -45 34 0 24 34 21 52 -4 11 -15 24 -27
29 -27 15 0 10 27 -16 82 -13 29 -35 81 -47 116 -13 35 -28 63 -33 62 -6 -1
-42 -30 -82 -66 -39 -35 -76 -64 -81 -64 -5 0 -15 6 -21 14 -9 10 3 24 56 64
127 96 125 93 94 151 -14 26 -26 35 -50 37 -17 2 -31 -1 -31 -7 0 -5 -4 -7
-10 -4 -14 8 -13 -8 1 -22 9 -9 3 -17 -22 -33 -19 -11 -43 -20 -54 -19 -11 1
-35 1 -54 0 l-35 -1 26 -27 c14 -16 31 -39 39 -53 17 -33 29 -100 18 -100 -5
0 -9 5 -9 12 0 6 -10 22 -22 35 -18 19 -20 26 -9 32 9 6 10 11 2 15 -6 4 -11
2 -11 -4 0 -23 -60 35 -80 78 -25 52 -20 70 6 21 16 -32 17 -33 25 -11 5 12
15 22 24 22 9 0 33 9 55 20 22 11 46 17 56 13 11 -4 15 -3 10 5 -4 6 13 24 39
42 25 17 45 35 45 40 0 13 -40 114 -49 123 -4 4 -47 -20 -96 -53 -66 -46 -90
-58 -97 -48 -7 10 -11 9 -22 -5 -24 -31 -50 -18 -52 26 -2 20 1 37 7 37 5 0 9
-14 9 -31 0 -18 4 -28 10 -24 6 4 8 10 5 15 -6 10 22 40 37 40 6 0 0 -9 -13
-20 -13 -10 -19 -19 -13 -20 16 0 195 123 197 135 0 6 -34 28 -76 49 -42 21
-77 45 -77 52 0 18 4 18 42 -6 18 -11 37 -20 41 -20 17 0 -5 20 -38 36 -36 17
-43 28 -25 39 6 3 10 17 10 31 0 28 0 27 35 14 20 -8 26 -7 23 2 -3 7 -14 14
-26 16 -12 2 -22 5 -22 7 0 46 83 290 145 425 19 41 39 93 46 115 6 22 18 49
25 60 8 11 14 29 14 40 -1 21 -29 78 -30 58z m-110 -922 c0 -7 -84 -61 -95
-61 -4 0 0 9 10 20 10 11 27 20 37 20 31 0 17 18 -41 53 -83 50 -72 61 13 15
42 -23 76 -44 76 -47z m-130 34 c17 -9 30 -19 30 -23 0 -11 -55 -42 -74 -42
-28 0 -17 17 14 24 34 6 40 25 10 33 -11 3 -20 9 -20 14 0 12 6 11 40 -6z
m-46 -104 c3 -4 3 -11 0 -14 -8 -8 -34 3 -34 14 0 11 27 12 34 0z m-64 -116
c0 -27 -4 -35 -17 -34 -11 0 -13 3 -5 6 6 2 12 18 12 34 0 16 2 29 5 29 3 0 5
-16 5 -35z m30 -81 c0 -4 -7 -12 -16 -18 -16 -12 -37 -86 -25 -86 4 0 18 11
31 25 l24 25 18 -29 c10 -15 19 -46 21 -67 1 -22 7 -42 12 -46 6 -4 2 -8 -9
-8 -16 0 -18 -6 -14 -50 5 -53 -6 -60 -17 -10 -4 18 -13 30 -23 30 -11 1 -7 6
12 16 27 15 28 19 24 66 -7 66 -20 79 -53 48 -16 -15 -29 -20 -34 -14 -12 12
5 105 22 116 15 9 27 10 27 2z m245 -69 c-28 -23 -45 -31 -45 -21 0 5 63 46
70 46 3 0 -8 -11 -25 -25z m69 9 c9 -24 7 -28 -9 -14 -17 14 -20 30 -6 30 5 0
12 -7 15 -16z m-144 -20 c0 -8 -4 -12 -10 -9 -5 3 -10 10 -10 16 0 5 5 9 10 9
6 0 10 -7 10 -16z m30 -45 c0 -6 -4 -7 -10 -4 -5 3 -10 11 -10 16 0 6 5 7 10
4 6 -3 10 -11 10 -16z m-243 -35 c1 -22 0 -23 -4 -6 -4 20 -9 23 -31 17 -26
-6 -26 -6 -7 9 27 21 40 15 42 -20z m413 26 c0 -5 -5 -10 -11 -10 -5 0 -7 5
-4 10 3 6 8 10 11 10 2 0 4 -4 4 -10z m-5 -30 c-3 -5 -11 -10 -16 -10 -6 0 -7
5 -4 10 3 6 11 10 16 10 6 0 7 -4 4 -10z m33 -22 c-2 -7 3 -12 10 -10 6 1 12
-5 12 -12 0 -12 -6 -13 -30 -5 -32 12 -38 24 -17 32 21 9 27 7 25 -5z m-431
-30 c-3 -8 -6 -5 -6 6 -1 11 2 17 5 13 3 -3 4 -12 1 -19z m165 -38 c-4 -49 -4
-50 31 -65 56 -23 60 -21 53 33 -5 46 -5 46 20 -23 60 -165 59 -157 24 -209
-17 -25 -36 -49 -43 -53 -6 -4 -2 6 10 21 23 28 22 33 -6 75 -13 19 -84 -22
-98 -57 l-11 -27 -1 28 c-1 30 -8 34 -25 12 -8 -10 -15 -12 -26 -5 -13 8 -13
10 1 10 9 0 22 7 29 15 7 9 19 14 27 11 7 -3 27 3 44 13 l32 19 -48 25 c-31
15 -44 27 -36 31 7 5 17 1 24 -8 7 -8 28 -22 49 -30 20 -9 45 -27 56 -41 16
-21 21 -22 26 -9 3 9 6 25 6 37 -1 30 -38 110 -48 103 -10 -6 -74 15 -93 31
-8 6 -23 13 -34 16 -18 4 -18 5 3 6 19 1 22 7 22 40 0 22 -5 42 -12 44 -7 3
-4 6 8 6 19 1 21 -3 16 -49z m234 5 c-18 -18 -22 -55 -5 -55 6 0 20 5 32 12
20 10 21 10 8 -5 -16 -20 -40 -21 -63 -4 -15 12 -14 16 9 46 14 17 28 30 30
27 3 -3 -2 -12 -11 -21z m-406 -10 c-7 -8 -20 -15 -29 -15 -13 1 -13 3 3 15
26 19 42 19 26 0z m295 5 c3 -6 -1 -7 -9 -4 -18 7 -21 14 -7 14 6 0 13 -4 16
-10z m180 1 c10 -17 -12 -21 -25 -6 -10 12 -10 15 3 15 9 0 18 -4 22 -9z m-62
-148 c20 -16 34 -34 32 -41 -3 -7 -1 -10 4 -7 5 3 12 1 16 -5 3 -5 1 -10 -4
-10 -6 0 -11 -5 -11 -10 0 -6 6 -10 13 -9 43 5 44 -5 2 -16 -61 -17 -75 -18
-75 -5 0 6 9 10 19 10 29 0 34 15 17 48 -19 37 -39 53 -79 62 l-32 8 31 1 c19
1 44 -9 67 -26z m-40 -40 c3 -5 -6 -9 -19 -9 -13 -1 -21 2 -18 7 6 11 31 12
37 2z m-208 -13 c19 -8 19 -9 -2 -9 -12 -1 -25 4 -28 9 -7 12 2 12 30 0z
m-103 -22 c-7 -7 -12 -8 -12 -2 0 14 12 26 19 19 2 -3 -1 -11 -7 -17z m183
-58 c3 -5 -3 -10 -14 -10 -12 0 -21 5 -21 10 0 6 6 10 14 10 8 0 18 -4 21 -10z
m-125 -20 c0 -5 -5 -10 -11 -10 -5 0 -7 5 -4 10 3 6 8 10 11 10 2 0 4 -4 4
-10z m80 -4 c0 -2 -8 -10 -17 -17 -16 -13 -17 -12 -4 4 13 16 21 21 21 13z
m241 -11 c24 -10 28 -14 14 -14 -32 -1 -65 11 -59 20 7 11 6 12 45 -6z m-216
-25 c-3 -5 -11 -10 -16 -10 -6 0 -7 5 -4 10 3 6 11 10 16 10 6 0 7 -4 4 -10z
m208 -6 c30 -7 37 -34 8 -34 -25 0 -81 20 -81 29 0 14 13 21 29 17 9 -3 28 -8
44 -12z m93 -40 c-4 -9 -9 -15 -11 -12 -3 3 -3 13 1 22 4 9 9 15 11 12 3 -3 3
-13 -1 -22z m118 11 c3 -9 0 -15 -9 -15 -8 0 -15 7 -15 15 0 8 4 15 9 15 5 0
11 -7 15 -15z m-214 -18 l25 -10 -25 -7 c-14 -5 -18 -8 -9 -9 9 -1 23 -8 30
-18 13 -15 11 -16 -11 -10 -76 18 -86 18 -42 -2 81 -38 40 -50 -48 -14 -32 13
-33 16 -18 27 10 7 15 16 12 19 -3 3 -3 15 1 26 7 22 26 22 85 -2z m155 3 c3
-5 -1 -10 -9 -10 -8 0 -18 5 -21 10 -3 6 1 10 9 10 8 0 18 -4 21 -10z m-105
-20 c0 -5 -4 -10 -10 -10 -5 0 -10 5 -10 10 0 6 5 10 10 10 6 0 10 -4 10 -10z
m27 -45 c0 -8 -4 -12 -9 -9 -4 3 -8 9 -8 15 0 5 4 9 8 9 5 0 9 -7 9 -15z m163
-46 c-16 -63 -80 -228 -91 -234 -9 -6 -1 22 11 40 4 6 17 42 29 80 13 39 26
79 31 90 5 11 11 33 15 49 3 15 8 26 11 23 3 -3 0 -25 -6 -48z m-50 16 c-14
-17 -36 -20 -45 -5 -3 5 0 7 8 4 8 -3 21 1 28 9 18 19 26 12 9 -8z m-243 -2
c52 -16 65 -29 41 -38 -22 -8 -103 21 -106 39 -4 20 -1 20 65 -1z m80 -5 c-3
-8 -6 -5 -6 6 -1 11 2 17 5 13 3 -3 4 -12 1 -19z m49 -5 c-7 -7 -26 7 -26 19
0 6 6 6 15 -2 9 -7 13 -15 11 -17z m46 -26 c-9 -10 -9 -16 0 -25 14 -14 0 -16
-20 -3 -10 6 -11 13 -1 35 8 17 16 23 22 17 7 -7 6 -15 -1 -24z m-149 -29 c9
-11 17 -24 17 -29 0 -15 -43 -10 -88 11 -38 17 -42 22 -33 39 10 17 16 18 48
10 21 -6 46 -20 56 -31z m84 20 c-3 -8 -6 -5 -6 6 -1 11 2 17 5 13 3 -3 4 -12
1 -19z m113 2 c0 -5 -4 -10 -9 -10 -6 0 -13 5 -16 10 -3 6 1 10 9 10 9 0 16
-4 16 -10z m-268 -53 c42 -15 51 -22 54 -41 1 -9 -13 -7 -52 8 -29 12 -54 27
-54 34 0 15 6 15 52 -1z m271 -16 c-3 -11 -11 -17 -19 -14 -10 4 -11 8 -1 19
17 19 26 17 20 -5z m-257 -36 c17 -7 31 -19 31 -27 0 -12 -7 -11 -38 4 -21 10
-45 18 -54 18 -8 0 -15 7 -15 16 0 16 14 14 76 -11z m129 6 c17 -7 15 -9 -13
-13 -22 -3 -32 -1 -32 9 0 14 15 16 45 4z m60 -21 c-3 -5 -18 -10 -33 -10 -21
0 -24 2 -12 10 20 13 53 13 45 0z m40 1 c3 -5 1 -12 -5 -16 -5 -3 -10 1 -10 9
0 18 6 21 15 7z m-198 -47 c65 -33 116 -43 128 -24 10 16 33 0 28 -21 -8 -29
-15 -30 -77 -14 -31 8 -60 14 -64 12 -13 -3 -142 55 -142 64 0 12 0 12 48 -11
59 -28 66 -24 10 6 -27 13 -48 27 -48 29 0 10 52 -8 117 -41z m67 4 c-3 -5
-12 -4 -20 3 -19 16 -18 18 6 12 11 -3 17 -9 14 -15z m106 -10 c0 -6 -7 -7
-16 -4 -9 3 -18 6 -20 6 -3 0 -3 4 1 10 7 11 35 2 35 -12z m10 -73 c-7 -9 -15
-13 -17 -11 -7 7 7 26 19 26 6 0 6 -6 -2 -15z m230 -95 c13 -9 13 -10 0 -10
-8 0 -22 5 -30 10 -13 9 -13 10 0 10 8 0 22 -5 30 -10z m-362 -31 c4 -19 -27
-34 -41 -20 -14 14 0 43 20 39 10 -2 19 -10 21 -19z m409 15 c-3 -3 -12 -4
-19 -1 -8 3 -5 6 6 6 11 1 17 -2 13 -5z m-2080 -70 c-3 -3 -12 -4 -19 -1 -8 3
-5 6 6 6 11 1 17 -2 13 -5z m190 -20 c-3 -3 -12 -4 -19 -1 -8 3 -5 6 6 6 11 1
17 -2 13 -5z m-143 -19 c38 -5 146 -34 171 -47 22 -12 22 -14 8 -33 -13 -17
-15 -17 -10 -2 8 21 -16 32 -113 53 -42 9 -66 10 -68 3 -5 -14 -32 10 -32 28
0 8 5 11 12 7 6 -4 21 -8 32 -9z m216 1 c0 -11 -19 -15 -25 -6 -3 5 1 10 9 10
9 0 16 -2 16 -4z m50 -32 c0 -2 -9 0 -20 6 -11 6 -20 13 -20 16 0 2 9 0 20 -6
11 -6 20 -13 20 -16z m1500 -17 c0 -7 -28 -2 -36 5 -3 4 -3 12 1 17 4 8 11 6
21 -3 8 -8 14 -17 14 -19z m-1433 -22 c48 -41 129 -135 116 -135 -4 0 -28 25
-52 56 -26 33 -49 53 -57 50 -8 -3 -11 0 -8 8 3 8 -9 23 -28 34 -18 12 -28 22
-22 22 6 0 29 -16 51 -35z m1673 21 c0 -2 -9 -6 -20 -9 -11 -3 -18 -1 -14 4 5
9 34 13 34 5z m-135 -52 c-8 -20 -15 -39 -15 -42 0 -3 -2 -3 -5 0 -6 5 22 78
30 78 3 0 -2 -16 -10 -36z m-1619 -2 c-4 -3 -14 2 -24 12 -16 18 -16 18 6 6
13 -6 21 -14 18 -18z m1750 -6 c-4 -44 22 -115 58 -161 l32 -40 -24 -23 c-30
-30 -39 -23 -13 10 15 19 17 28 9 36 -14 14 -48 -12 -48 -35 0 -8 -5 -11 -10
-8 -6 4 -3 17 10 35 35 49 23 64 -28 34 l-27 -16 29 27 c34 31 24 55 -15 35
l-24 -11 22 18 c13 11 20 27 18 43 -1 14 -3 35 -4 48 -1 24 -31 31 -31 7 0 -8
-4 -15 -10 -15 -13 0 -13 6 2 29 6 10 21 19 34 19 18 0 21 -5 20 -32z m-1972
-30 c-3 -14 -10 -26 -14 -26 -5 0 -3 13 3 30 13 35 21 33 11 -4z m2103 8 c-9
-9 -28 6 -21 18 4 6 10 6 17 -1 6 -6 8 -13 4 -17z m-2066 -15 c-5 -13 -10 -19
-10 -12 -1 15 10 45 15 40 3 -2 0 -15 -5 -28z m179 16 c7 -8 8 -15 2 -15 -5 0
-15 7 -22 15 -7 8 -8 15 -2 15 5 0 15 -7 22 -15z m49 -22 c-6 -7 -7 -18 -3
-25 6 -9 3 -9 -10 1 -13 11 -14 16 -4 23 10 8 10 11 1 15 -7 2 -13 9 -13 14 0
5 9 4 19 -3 15 -9 17 -16 10 -25z m1861 -27 c0 -7 12 -23 26 -35 14 -12 23
-25 20 -28 -8 -9 -45 27 -62 59 -18 35 -18 44 1 28 8 -7 15 -18 15 -24z
m-1792 -30 c41 -51 55 -92 30 -83 -7 2 -13 13 -13 24 0 26 -36 68 -45 53 -4
-7 -12 -5 -21 6 -12 16 -12 17 4 11 9 -3 17 -2 17 4 0 5 -7 12 -15 15 -8 4
-15 10 -15 15 0 19 17 6 58 -45z m1482 44 c0 -5 -5 -10 -11 -10 -5 0 -7 5 -4
10 3 6 8 10 11 10 2 0 4 -4 4 -10z m115 0 c-3 -5 -12 -7 -20 -3 -21 7 -19 13
6 13 11 0 18 -4 14 -10z m-175 -10 c0 -5 -4 -10 -10 -10 -5 0 -10 5 -10 10 0
6 5 10 10 10 6 0 10 -4 10 -10z m-1610 -55 c-13 -14 -28 -25 -34 -25 -5 0 3
13 19 30 16 16 31 28 33 25 3 -3 -5 -16 -18 -30z m551 15 l24 -21 -32 16 c-32
15 -42 25 -24 25 5 0 19 -9 32 -20z m-696 0 c3 -5 2 -10 -4 -10 -5 0 -13 5
-16 10 -3 6 -2 10 4 10 5 0 13 -4 16 -10z m103 1 c16 12 16 12 0 -6 -18 -19
-18 -19 -35 0 -17 18 -17 18 0 6 14 -11 20 -11 35 0z m1783 -18 c13 -16 12
-17 -3 -4 -17 13 -22 21 -14 21 2 0 10 -8 17 -17z m-1832 -24 c-24 -15 -45
-11 -24 5 11 8 24 12 28 9 5 -3 3 -9 -4 -14z m1821 -34 c0 -5 -5 -3 -10 5 -5
8 -10 20 -10 25 0 6 5 3 10 -5 5 -8 10 -19 10 -25z m-1688 -65 c4 0 8 6 8 14
0 15 47 28 55 15 3 -4 -4 -9 -16 -11 -12 -2 -27 -11 -33 -21 -9 -15 -6 -22 17
-42 15 -13 27 -32 27 -42 -1 -39 -38 -152 -58 -178 l-22 -28 -1 24 c0 13 0 59
1 102 1 73 0 77 -21 77 -28 0 -23 5 13 14 21 5 30 2 38 -14 8 -15 8 -20 -1
-18 -9 2 -13 -18 -14 -71 -1 -61 1 -70 11 -56 7 9 18 48 24 87 11 64 11 71 -7
91 -24 26 -73 115 -73 131 0 6 10 -8 22 -31 12 -24 25 -43 30 -43z m-116 34
c-23 -16 -40 -19 -31 -4 3 6 13 10 21 10 8 0 14 5 14 12 0 6 3 8 7 4 5 -4 -1
-14 -11 -22z m24 -25 c-18 -17 -28 -34 -24 -41 4 -7 3 -8 -4 -4 -7 4 -12 11
-12 15 0 14 55 68 63 63 5 -2 -5 -17 -23 -33z m1990 -11 c-11 -12 -20 -26 -20
-30 0 -5 -5 -6 -10 -3 -6 4 -2 18 11 36 11 16 25 27 30 24 5 -4 0 -16 -11 -27z
m33 -29 c-8 -17 -17 -29 -19 -26 -7 6 20 66 27 61 4 -2 1 -18 -8 -35z m-1998
21 c-3 -5 -13 -10 -21 -10 -8 0 -12 5 -9 10 3 6 13 10 21 10 8 0 12 -4 9 -10z
m1809 -6 c5 -14 4 -15 -9 -4 -17 14 -19 20 -6 20 5 0 12 -7 15 -16z m-1659 -4
c-3 -5 -14 -10 -23 -10 -15 0 -15 2 -2 10 20 13 33 13 25 0z m1908 2 c5 -7
-26 -52 -36 -52 -3 0 0 14 6 30 11 30 21 37 30 22z m-2008 -22 c-3 -5 -14 -10
-23 -10 -15 0 -15 2 -2 10 20 13 33 13 25 0z m2075 -30 c0 -5 -5 -10 -11 -10
-5 0 -7 5 -4 10 3 6 8 10 11 10 2 0 4 -4 4 -10z m-2150 -14 c0 -3 -4 -8 -10
-11 -5 -3 -10 -1 -10 4 0 6 5 11 10 11 6 0 10 -2 10 -4z m30 -50 c0 -26 -6
-18 -14 19 -5 22 -4 26 4 15 5 -8 10 -24 10 -34z m170 40 c0 -2 -8 -10 -17
-17 -16 -13 -17 -12 -4 4 13 16 21 21 21 13z m-163 -113 c-3 -10 -5 -2 -5 17
0 19 2 27 5 18 2 -10 2 -26 0 -35z m1973 27 c0 -5 -4 -10 -9 -10 -6 0 -13 5
-16 10 -3 6 1 10 9 10 9 0 16 -4 16 -10z m67 4 c-3 -3 -12 -4 -19 -1 -8 3 -5
6 6 6 11 1 17 -2 13 -5z m83 -4 c0 -5 -2 -10 -4 -10 -3 0 -8 5 -11 10 -3 6 -1
10 4 10 6 0 11 -4 11 -10z m-193 -6 c-3 -3 -12 -4 -19 -1 -8 3 -5 6 6 6 11 1
17 -2 13 -5z m-1928 -56 c0 -7 -4 -22 -9 -33 -7 -17 -9 -15 -9 13 -1 17 4 32
9 32 6 0 10 -6 9 -12z m2041 -60 c0 -6 -6 -5 -15 2 -8 7 -15 14 -15 16 0 2 7
1 15 -2 8 -4 15 -11 15 -16z"/>
<path d="M2135 3620 c-38 -4 -95 -14 -125 -23 -30 -9 -77 -23 -105 -31 -77
-22 -191 -72 -238 -105 -55 -38 -95 -81 -76 -81 18 0 168 -59 151 -60 -7 0
-38 9 -69 20 -32 11 -65 17 -75 14 -11 -3 -18 0 -18 7 0 9 -5 8 -17 -3 -15
-16 -14 -20 22 -60 29 -32 52 -46 88 -56 27 -7 51 -12 52 -10 9 8 16 58 9 56
-5 -1 -32 1 -59 5 -35 5 -54 13 -63 28 -19 30 -8 34 25 11 15 -11 46 -23 68
-27 38 -5 41 -4 62 33 39 70 110 147 164 179 100 60 298 79 460 45 141 -30
247 -109 325 -241 66 -113 96 -215 98 -333 l1 -98 30 0 30 0 -3 175 c-2 107 1
175 7 175 5 0 24 -40 41 -89 29 -81 35 -89 62 -95 45 -9 46 -8 63 22 15 26 16
26 9 2 -9 -37 -21 -45 -61 -41 -33 3 -36 1 -24 -13 7 -9 28 -17 45 -17 l31 -2
-35 -7 c-19 -4 -29 -8 -22 -9 7 0 10 -6 7 -12 -11 -17 24 -99 42 -99 11 0 13
-3 5 -13 -7 -8 -7 -18 -1 -27 8 -13 10 -13 18 0 6 8 13 11 17 7 4 -3 2 -12 -4
-20 -19 -23 -7 -52 24 -57 17 -3 24 -8 17 -13 -6 -4 -18 -4 -27 -1 -11 4 -9
-11 13 -68 23 -58 36 -79 67 -101 83 -58 104 -78 98 -90 -4 -7 -4 -9 1 -5 4 4
14 3 22 -3 17 -15 7 -83 -18 -125 l-19 -31 37 -91 c33 -83 40 -94 74 -110 51
-23 64 -51 64 -136 0 -55 -3 -70 -14 -68 -9 2 -12 -3 -8 -15 7 -21 124 -361
133 -383 4 -12 10 -9 26 12 11 16 25 28 31 28 6 0 1 -11 -12 -23 -13 -15 -19
-30 -15 -40 3 -10 1 -17 -5 -17 -18 0 -13 -22 24 -99 33 -69 36 -72 63 -66 80
17 232 0 232 -27 0 -11 -1 -10 -50 7 -23 8 -61 15 -84 14 -39 -1 -38 -2 26
-18 74 -19 95 -31 57 -32 l-24 0 25 -10 c13 -6 26 -11 27 -13 2 -2 -8 -29 -23
-62 -54 -123 -55 -124 -83 -123 l-26 1 25 8 c24 8 23 8 -7 9 -25 1 -31 -2 -27
-14 4 -9 19 -15 36 -15 17 0 27 -4 23 -10 -3 -6 -17 -7 -30 -4 l-23 6 14 -44
c22 -66 46 -118 55 -118 4 0 11 10 15 23 3 12 47 121 97 242 147 359 158 387
311 815 37 102 91 257 121 345 29 88 64 184 77 214 l24 53 16 -24 c9 -14 20
-43 23 -64 10 -55 102 -339 119 -367 7 -12 26 -60 40 -107 41 -132 52 -138 81
-47 21 63 31 75 47 59 7 -7 19 -12 28 -12 11 0 26 -22 43 -60 22 -47 32 -60
50 -60 12 0 31 -3 42 -5 16 -4 25 4 41 37 12 24 33 50 47 58 25 14 28 13 57
-15 26 -25 30 -36 30 -84 1 -53 2 -57 39 -83 l39 -26 31 38 c17 21 31 48 31
60 0 23 -77 238 -93 258 -6 7 -16 11 -24 8 -7 -3 -13 -1 -13 4 0 6 5 10 10 10
17 0 11 32 -29 141 -54 150 -53 149 -80 106 -12 -19 -28 -38 -37 -41 -9 -3 1
13 21 36 39 46 39 52 8 136 -17 46 -24 50 -44 26 -7 -8 -25 -22 -41 -30 -40
-21 -38 -47 5 -40 27 5 25 3 -10 -10 -23 -8 -57 -29 -74 -45 -27 -25 -30 -33
-24 -66 6 -36 4 -39 -27 -51 -29 -11 -35 -10 -53 9 -11 12 -14 19 -8 15 19
-10 70 33 77 64 3 17 18 36 39 49 28 17 33 26 29 46 -3 18 0 25 11 25 9 0 29
12 46 26 24 20 30 31 26 52 -5 27 -5 27 5 3 6 -13 13 -22 15 -19 3 3 -16 62
-42 132 -32 88 -51 126 -62 126 -14 0 -14 2 -1 10 22 14 5 23 -20 10 -31 -17
-43 -9 -77 56 -34 63 -68 100 -121 132 l-33 19 26 5 c18 4 25 2 22 -6 -3 -7 4
-18 15 -25 16 -10 26 -8 64 14 51 30 54 25 18 -22 -34 -44 -26 -52 11 -11 27
30 28 33 16 77 -7 25 -23 70 -37 100 -30 67 -31 140 -3 216 40 108 92 140 246
152 76 5 83 8 83 27 0 21 -1 21 -350 21 -349 0 -350 0 -350 -21 0 -19 8 -22
72 -28 113 -10 197 -62 214 -133 11 -42 -14 -158 -52 -240 -20 -43 -54 -127
-75 -188 -22 -60 -64 -171 -94 -245 -88 -221 -182 -471 -200 -535 -10 -33 -38
-107 -63 -165 -24 -58 -51 -127 -59 -155 -8 -27 -23 -70 -33 -95 -10 -25 -30
-74 -44 -110 -13 -35 -28 -66 -33 -67 -9 -3 -64 144 -114 302 -29 93 -102 245
-117 245 -4 0 -8 18 -8 40 -1 21 -10 59 -19 84 -17 43 -19 46 -74 57 -112 23
-259 99 -290 151 -12 21 -11 21 15 -3 39 -36 141 -86 242 -119 45 -15 82 -26
82 -24 0 2 -10 24 -22 49 -18 37 -26 44 -43 40 -19 -6 -19 -5 -2 8 9 8 17 17
17 21 0 12 -23 6 -42 -11 -10 -9 -21 -14 -24 -10 -3 3 6 13 20 22 14 10 26 24
26 32 0 10 -12 5 -37 -16 -50 -41 -54 -32 -6 12 21 20 36 38 33 41 -3 2 -25
-13 -49 -35 -24 -22 -46 -38 -49 -34 -3 3 16 25 44 49 65 58 53 67 -15 10 -29
-24 -58 -44 -64 -44 -6 0 6 15 28 33 78 63 90 75 84 82 -4 3 -34 -17 -67 -44
-57 -48 -82 -61 -82 -43 0 4 32 30 70 57 62 44 82 65 64 65 -3 0 -34 -21 -70
-46 -82 -59 -83 -50 -1 12 34 26 64 49 66 51 2 2 2 5 -1 8 -2 3 -42 -23 -89
-57 -99 -72 -90 -54 11 23 39 29 70 57 70 61 0 10 -60 -30 -130 -85 -24 -20
-46 -34 -49 -31 -5 5 5 13 102 85 83 62 89 86 7 28 -33 -24 -62 -40 -65 -38
-2 3 22 24 55 48 63 44 65 47 51 70 -7 11 -15 9 -42 -11 -38 -28 -129 -71
-129 -60 1 4 22 17 48 29 61 29 121 73 100 73 -9 0 -20 -5 -23 -10 -8 -13
-100 -60 -117 -60 -7 1 2 7 19 15 45 19 123 74 123 86 0 25 -35 19 -85 -15
-30 -20 -55 -32 -55 -28 0 5 27 26 60 48 56 36 60 41 55 69 -7 39 -65 195
-117 317 l-42 96 -45 8 c-25 4 -73 8 -106 9 -33 2 -64 3 -68 4 -5 0 -7 21 -6
46 2 24 0 47 -4 51 -4 4 -7 -16 -7 -44 0 -39 -4 -52 -14 -52 -11 0 -16 15 -19
53 l-3 52 -2 -52 c-1 -38 -6 -53 -16 -53 -8 0 -17 8 -19 18 -4 16 -5 16 -6 0
0 -10 -8 -18 -16 -18 -11 0 -15 12 -15 50 0 28 -4 50 -10 50 -6 0 -7 -18 -3
-45 5 -37 3 -46 -12 -51 -9 -4 -20 -1 -25 6 -5 8 -9 9 -14 1 -10 -16 -36 -13
-36 4 0 20 -10 19 -26 -2 -18 -25 -21 -16 -16 50 l4 57 179 0 c171 0 269 -11
269 -31 0 -5 -7 -9 -15 -9 -10 0 -14 -10 -12 -35 1 -19 6 -34 12 -33 5 2 8 14
6 27 -2 15 1 21 8 17 6 -4 11 -18 11 -31 0 -13 4 -26 8 -29 4 -2 6 26 4 64 -4
68 -4 68 36 108 38 38 99 61 122 47 6 -4 35 -3 65 0 45 6 55 11 55 26 0 18
-15 19 -405 19 -448 0 -405 7 -410 -63 -1 -15 -5 -30 -9 -34 -16 -16 -85 -2
-224 46 -193 66 -277 78 -447 61z m1094 -101 c74 -11 101 -21 101 -41 0 -7 -5
-7 -12 -1 -7 5 -42 9 -77 8 -44 -1 -65 3 -68 12 -6 16 -34 17 -30 1 4 -19 -36
-15 -62 7 -22 18 -24 18 -18 2 5 -14 3 -18 -11 -15 -9 2 -16 10 -14 16 1 9
-21 12 -78 12 -54 0 -80 4 -80 12 0 13 220 5 349 -13z m-231 -190 c62 0 81 -3
65 -9 -16 -6 -23 -18 -23 -35 0 -14 -4 -25 -10 -25 -5 0 -10 13 -10 29 0 28
-2 29 -50 29 -47 0 -50 -2 -51 -27 -2 -24 -2 -24 -6 -3 -3 13 -11 26 -19 29
-8 3 -14 10 -14 15 0 6 7 7 16 4 9 -3 55 -6 102 -7z m145 -6 c-7 -2 -19 -2
-25 0 -7 3 -2 5 12 5 14 0 19 -2 13 -5z m57 -33 c0 -5 -4 -10 -10 -10 -5 0
-10 5 -10 10 0 6 5 10 10 10 6 0 10 -4 10 -10z m28 -20 c-7 -11 -16 -20 -20
-20 -11 0 -10 9 5 25 18 21 29 18 15 -5z m82 0 c0 -5 -2 -10 -4 -10 -3 0 -8 5
-11 10 -3 6 -1 10 4 10 6 0 11 -4 11 -10z m-1605 -10 c25 -11 -1 -11 -35 0
-20 6 -21 8 -5 8 11 0 29 -3 40 -8z m1545 -30 c0 -5 -2 -10 -4 -10 -3 0 -8 5
-11 10 -3 6 -1 10 4 10 6 0 11 -4 11 -10z m90 -40 c0 -5 -4 -10 -10 -10 -5 0
-10 5 -10 10 0 6 5 10 10 10 6 0 10 -4 10 -10z m38 -15 c-3 -3 -9 2 -12 12 -6
14 -5 15 5 6 7 -7 10 -15 7 -18z m-318 -6 c0 -4 -7 -6 -15 -3 -8 4 -15 10 -15
15 0 4 7 6 15 3 8 -4 15 -10 15 -15z m40 -79 c0 -5 -2 -10 -4 -10 -3 0 -8 5
-11 10 -3 6 -1 10 4 10 6 0 11 -4 11 -10z m20 -54 c0 -2 -13 -6 -29 -8 -17 -2
-28 -1 -25 4 5 8 54 12 54 4z m1515 -33 c19 -9 35 -21 35 -26 0 -5 -3 -7 -7
-5 -5 3 -23 11 -40 18 -18 8 -33 18 -33 22 0 11 5 10 45 -9z m-1440 -31 c-6
-6 -35 18 -35 29 0 5 9 1 20 -8 11 -9 17 -19 15 -21z m-50 -2 c-3 -5 -11 -10
-17 -10 -6 0 -20 -7 -30 -17 -11 -9 -18 -11 -18 -5 0 7 -8 12 -17 13 -10 0 0
6 22 14 50 16 68 18 60 5z m1403 -22 c-2 -6 -10 -14 -16 -16 -7 -2 -10 2 -6
12 7 18 28 22 22 4z m57 2 c7 -11 -74 -124 -82 -116 -7 6 56 126 67 126 5 0
12 -5 15 -10z m-1380 -30 c3 -5 2 -10 -4 -10 -5 0 -13 5 -16 10 -3 6 -2 10 4
10 5 0 13 -4 16 -10z m1415 2 c0 -4 -16 -24 -36 -43 -37 -34 -36 -26 1 24 20
26 35 34 35 19z m88 -10 c6 -18 -15 -14 -22 4 -4 10 -1 14 6 12 6 -2 14 -10
16 -16z m-1581 2 c-3 -3 -12 -4 -19 -1 -8 3 -5 6 6 6 11 1 17 -2 13 -5z m-30
-24 c17 -13 20 -20 11 -20 -8 0 -23 9 -33 20 -10 11 -15 20 -11 20 4 0 19 -9
33 -20z m1556 -17 c-6 -2 -31 -19 -55 -36 -115 -86 -130 -81 -31 10 61 55 70
60 83 46 11 -11 12 -17 3 -20z m-1433 11 c0 -2 -11 -4 -25 -4 -14 0 -25 4 -25
9 0 4 11 6 25 3 14 -2 25 -6 25 -8z m230 -8 c0 -2 -8 -10 -17 -17 -16 -13 -17
-12 -4 4 13 16 21 21 21 13z m1300 -34 c0 -7 -4 -10 -10 -7 -5 3 -10 16 -10
28 0 18 2 19 10 7 5 -8 10 -21 10 -28z m-1536 3 c-16 -13 -17 -16 -4 -25 13
-8 13 -10 -1 -10 -9 0 -22 6 -28 14 -10 12 -7 17 16 28 34 17 44 13 17 -7z
m1466 -9 c0 -7 -25 -23 -55 -35 -72 -30 -71 -45 2 -20 69 24 73 24 73 0 0 -17
-10 -20 -77 -26 -43 -4 -86 -9 -95 -11 -23 -7 -23 13 0 20 9 3 44 26 77 50 57
43 75 49 75 22z m-1180 -7 c-14 -11 -34 -24 -45 -29 -11 -6 -31 -17 -45 -27
-14 -9 -20 -11 -14 -4 17 18 107 80 119 80 6 0 -1 -9 -15 -20z m-353 -3 c1 -1
-7 -7 -17 -14 -16 -10 -20 -10 -20 2 0 8 -6 17 -12 20 -7 3 1 3 17 -1 17 -3
31 -6 32 -7z m1673 -23 c0 -20 -3 -24 -11 -16 -7 7 -9 19 -6 27 10 24 17 19
17 -11z m-60 -19 c0 -8 -4 -14 -10 -14 -5 0 -10 9 -10 21 0 11 5 17 10 14 6
-3 10 -13 10 -21z m-1554 -10 c-3 -9 -6 -22 -6 -29 0 -7 -13 -18 -30 -24 -38
-13 -40 -4 -2 10 l27 11 -40 20 c-40 19 -40 19 -7 14 18 -3 32 -1 32 4 0 6 7
10 16 10 11 0 14 -5 10 -16z m40 -10 c-4 -9 -9 -15 -11 -12 -3 3 -3 13 1 22 4
9 9 15 11 12 3 -3 3 -13 -1 -22z m1209 -16 c-8 -35 -12 -44 -19 -37 -7 8 6 69
16 69 6 0 7 -13 3 -32z m-905 17 c0 -8 -92 -65 -104 -65 -6 0 12 16 39 34 49
34 65 42 65 31z m1266 -47 c-4 -29 -12 -59 -17 -67 -6 -11 -7 -7 -2 14 4 17 7
47 6 68 0 20 4 37 10 37 6 0 7 -19 3 -52z m-116 2 c0 -18 -7 -20 -59 -20 -127
0 -167 27 -48 33 39 1 80 4 90 5 11 1 17 -5 17 -18z m50 -20 c0 -5 -4 -10 -10
-10 -5 0 -10 5 -10 10 0 6 5 10 10 10 6 0 10 -4 10 -10z m150 0 c0 -5 -2 -10
-4 -10 -3 0 -8 5 -11 10 -3 6 -1 10 4 10 6 0 11 -4 11 -10z m-1490 -15 c-7 -8
-18 -15 -24 -15 -6 0 -2 7 8 15 25 19 32 19 16 0z m1203 -2 c42 -3 77 -8 77
-10 0 -2 -4 -13 -10 -23 -9 -17 -13 -17 -87 7 -43 13 -82 29 -88 35 -7 8 -4 9
10 4 11 -4 55 -10 98 -13z m-1306 -15 c-3 -8 -6 -5 -6 6 -1 11 2 17 5 13 3 -3
4 -12 1 -19z m1277 -29 c62 -21 88 -41 73 -56 -8 -7 -167 69 -167 81 0 4 6 6
13 4 6 -3 43 -15 81 -29z m147 4 c-8 -15 -10 -15 -11 -2 0 17 10 32 18 25 2
-3 -1 -13 -7 -23z m-1316 -13 c-3 -5 -12 -10 -18 -10 -7 0 -6 4 3 10 19 12 23
12 15 0z m1078 -12 c8 -13 34 -43 57 -67 28 -29 39 -46 32 -53 -6 -6 -15 -7
-20 -4 -15 9 -102 126 -102 137 0 16 17 9 33 -13z m327 12 c0 -5 -5 -10 -11
-10 -5 0 -7 5 -4 10 3 6 8 10 11 10 2 0 4 -4 4 -10z m-200 -66 c10 -10 11 -17
3 -25 -7 -7 -26 5 -64 41 l-54 51 50 -26 c28 -15 57 -33 65 -41z m94 32 c-3
-9 -10 -16 -15 -16 -6 0 -5 9 1 21 13 24 24 20 14 -5z m76 14 c0 -5 -5 -10
-11 -10 -5 0 -7 5 -4 10 3 6 8 10 11 10 2 0 4 -4 4 -10z m-306 -62 c27 -44 34
-64 26 -72 -8 -8 -12 -4 -16 12 -4 12 -10 22 -14 22 -8 0 -40 72 -40 90 0 19
8 10 44 -52z m-1144 42 c0 -5 -2 -10 -4 -10 -3 0 -8 5 -11 10 -3 6 -1 10 4 10
6 0 11 -4 11 -10z m1361 -70 c-24 -23 -32 -26 -29 -13 2 10 13 22 26 28 12 5
22 14 22 19 0 5 3 6 7 2 4 -3 -8 -20 -26 -36z m-57 -42 c-2 -7 -21 -21 -42
-31 -39 -20 -36 -15 12 21 33 25 37 27 30 10z m-154 -18 c0 -5 -4 -10 -10 -10
-5 0 -10 5 -10 10 0 6 5 10 10 10 6 0 10 -4 10 -10z m55 0 c-3 -5 -12 -10 -18
-10 -7 0 -6 4 3 10 19 12 23 12 15 0z m-1244 -37 c-8 -15 -10 -15 -11 -2 0 17
10 32 18 25 2 -3 -1 -13 -7 -23z m363 -109 c3 -8 2 -12 -4 -9 -6 3 -10 10 -10
16 0 14 7 11 14 -7z m1014 -46 c-23 -42 -24 -43 -78 -44 l-55 -1 50 6 c46 6
52 9 73 49 13 24 26 41 29 38 3 -3 -6 -24 -19 -48z m-1248 34 c0 -20 -23 -31
-43 -20 -16 8 -17 12 -6 19 18 11 49 12 49 1z m1210 -37 c-7 -8 -19 -15 -27
-15 -10 0 -8 6 8 19 27 22 38 19 19 -4z m-1271 1 c6 -7 9 -21 5 -29 -8 -22
-44 -32 -55 -16 -12 19 -11 29 1 29 6 0 10 -7 10 -15 0 -8 4 -15 10 -15 5 0 6
8 3 17 -5 13 -2 15 11 10 10 -4 15 -3 11 3 -3 6 -13 10 -21 10 -8 0 -14 5 -14
10 0 15 26 12 39 -4z m311 -6 c0 -5 -5 -10 -11 -10 -5 0 -7 5 -4 10 3 6 8 10
11 10 2 0 4 -4 4 -10z m1220 -18 c-14 -9 -47 -38 -74 -64 -57 -55 -66 -60 -36
-18 24 34 107 100 124 99 6 0 0 -8 -14 -17z m100 -28 c0 -6 -96 -50 -130 -58
-14 -4 7 9 45 28 72 35 85 40 85 30z m85 -4 c-15 -24 -125 -68 -125 -51 0 6 8
11 18 11 9 0 35 11 57 24 44 27 59 31 50 16z m-1348 -26 c-3 -3 -12 -4 -19 -1
-8 3 -5 6 6 6 11 1 17 -2 13 -5z m6 -31 c3 -5 -12 -8 -33 -8 -40 -1 -74 -20
-64 -37 4 -6 10 -5 15 3 10 17 40 18 56 3 7 -7 18 -15 25 -18 10 -5 10 -7 1
-12 -7 -3 -13 -10 -13 -15 0 -4 6 -6 13 -4 8 4 13 -6 14 -29 1 -26 -4 -36 -20
-44 -21 -10 -21 -11 -2 -11 29 -1 65 27 65 51 0 11 -8 32 -18 46 -35 51 -37
55 -13 43 23 -13 51 -60 51 -89 0 -21 -35 -57 -66 -66 -71 -22 -152 106 -107
169 13 18 27 24 55 25 20 0 39 -3 41 -7z m-250 -88 c-3 -9 -8 -14 -10 -11 -3
3 -2 9 2 15 9 16 15 13 8 -4z m50 -20 c-3 -9 -8 -14 -10 -11 -3 3 -2 9 2 15 9
16 15 13 8 -4z m-33 -15 c0 -5 -2 -10 -4 -10 -3 0 -8 5 -11 10 -3 6 -1 10 4
10 6 0 11 -4 11 -10z m50 -25 c-7 -14 -20 -25 -27 -25 -8 0 -11 -5 -8 -10 11
-17 -16 -83 -47 -113 -31 -32 -34 -40 -15 -54 13 -11 63 -10 74 0 3 4 12 2 20
-5 29 -24 31 8 2 33 -26 24 -30 25 -38 11 -5 -9 -13 -14 -17 -9 -11 10 26 47
41 41 7 -3 15 -14 18 -25 7 -27 25 -24 33 6 3 14 11 25 16 25 6 0 7 -7 2 -17
-5 -10 -8 -39 -9 -65 0 -27 -3 -48 -7 -48 -5 0 -8 6 -8 14 0 12 -12 13 -57 9
-32 -3 -63 -10 -69 -15 -8 -5 -14 -3 -17 6 -4 10 -1 13 9 9 7 -3 14 -1 14 5 0
5 -6 12 -14 15 -18 7 -27 55 -10 61 19 7 76 95 69 106 -3 6 -13 10 -21 10 -8
0 -12 5 -9 10 3 6 1 10 -5 10 -7 0 -9 -8 -5 -20 7 -21 -9 -28 -20 -10 -13 21
15 39 50 33 30 -5 36 -2 46 21 7 14 15 24 17 21 3 -3 -1 -16 -8 -30z m267 -47
c-3 -8 -6 -5 -6 6 -1 11 2 17 5 13 3 -3 4 -12 1 -19z m-371 -77 c-20 -20 -26
-22 -26 -9 0 9 9 20 20 23 11 4 18 11 15 16 -4 5 -3 15 2 22 5 8 9 7 11 -7 2
-10 -7 -30 -22 -45z m348 35 c-3 -7 6 -22 19 -32 28 -23 53 -64 37 -64 -5 0
-10 5 -10 11 0 11 -25 39 -35 39 -3 0 -17 7 -31 16 l-25 17 23 12 c13 7 24 13
25 14 1 1 0 -5 -3 -13z m-114 -26 c8 -5 11 -12 7 -17 -5 -4 -12 -2 -16 5 -4 8
-15 10 -26 6 -13 -5 -16 -4 -11 4 9 14 26 15 46 2z m56 -20 c31 -11 74 -65 74
-93 0 -30 -29 -63 -70 -82 -47 -21 -81 -15 -104 20 l-16 24 37 -25 c20 -13 39
-21 42 -17 3 5 14 9 24 11 31 5 67 44 67 72 0 34 -28 73 -47 66 -13 -5 -43 14
-43 28 0 8 2 8 36 -4z m-99 -34 c-12 -18 -24 -29 -25 -24 -5 11 26 58 38 58 5
0 -1 -15 -13 -34z m93 -15 c41 -39 27 -90 -25 -94 -58 -5 -84 51 -49 101 17
25 44 23 74 -7z m130 -31 c0 -5 -2 -10 -4 -10 -3 0 -8 5 -11 10 -3 6 -1 10 4
10 6 0 11 -4 11 -10z m0 -41 c0 -11 -4 -17 -10 -14 -5 3 -10 13 -10 21 0 8 5
14 10 14 6 0 10 -9 10 -21z m-318 -31 l-22 -22 0 21 c0 12 7 23 18 25 27 6 28
-1 4 -24z m308 -8 c0 -5 -4 -10 -10 -10 -5 0 -10 5 -10 10 0 6 5 10 10 10 6 0
10 -4 10 -10z m-265 -9 c10 -17 -12 -21 -25 -6 -10 12 -10 15 3 15 9 0 18 -4
22 -9z m245 -29 c0 -15 -2 -15 -10 -2 -13 20 -13 33 0 25 6 -3 10 -14 10 -23z
m-280 8 c0 -5 -2 -10 -4 -10 -3 0 -8 5 -11 10 -3 6 -1 10 4 10 6 0 11 -4 11
-10z m260 -20 c0 -5 -4 -10 -10 -10 -5 0 -10 5 -10 10 0 6 5 10 10 10 6 0 10
-4 10 -10z m-30 -10 c0 -5 -2 -10 -4 -10 -3 0 -8 5 -11 10 -3 6 -1 10 4 10 6
0 11 -4 11 -10z m-90 -10 c0 -5 -4 -10 -10 -10 -5 0 -10 5 -10 10 0 6 5 10 10
10 6 0 10 -4 10 -10z m55 0 c-3 -5 -13 -10 -21 -10 -8 0 -14 5 -14 10 0 6 9
10 21 10 11 0 17 -4 14 -10z m-74 -86 c-21 -17 -31 -35 -31 -54 0 -36 -35 -80
-63 -79 l-22 0 22 9 c25 10 43 39 43 69 0 25 47 81 67 81 8 0 1 -11 -16 -26z
m267 -7 c1 -17 -3 -38 -7 -46 -10 -16 -31 -6 -31 15 0 26 -20 15 -37 -21 -16
-34 -16 -36 1 -53 15 -14 18 -14 14 -2 -4 11 1 16 13 16 22 0 22 2 7 -31 -13
-30 -25 -31 -56 -5 -23 19 -23 20 -8 67 9 27 20 53 24 58 6 9 53 30 73 34 3 1
6 -14 7 -32z m-323 12 c11 -16 1 -19 -13 -3 -7 8 -8 14 -3 14 5 0 13 -5 16
-11z m156 -49 c15 -48 4 -65 -46 -74 -31 -6 -35 -11 -35 -36 0 -37 12 -38 75
-5 54 27 73 24 36 -6 -20 -17 -22 -21 -10 -36 12 -14 12 -16 0 -8 -8 4 -44 7
-80 7 -56 -1 -63 1 -48 12 9 7 17 26 17 41 0 22 -4 26 -20 22 -11 -3 -20 -2
-20 3 0 4 20 10 45 12 25 3 52 11 60 18 17 14 20 66 5 75 -5 3 -10 11 -10 16
0 22 20 -4 31 -41z m-141 -160 c0 -5 -7 -10 -16 -10 -8 0 -12 5 -9 10 3 6 10
10 16 10 5 0 9 -4 9 -10z m231 -17 c-12 -20 -14 -14 -5 12 4 9 9 14 11 11 3
-2 0 -13 -6 -23z"/>
<path d="M3108 3503 c7 -3 16 -2 19 1 4 3 -2 6 -13 5 -11 0 -14 -3 -6 -6z"/>
<path d="M3690 2086 c0 -9 5 -16 10 -16 6 0 10 4 10 9 0 6 -4 13 -10 16 -5 3
-10 -1 -10 -9z"/>
<path d="M3680 2039 c0 -5 5 -7 10 -4 6 3 10 8 10 11 0 2 -4 4 -10 4 -5 0 -10
-5 -10 -11z"/>
<path d="M3710 2040 c0 -5 5 -10 10 -10 6 0 10 5 10 10 0 6 -4 10 -10 10 -5 0
-10 -4 -10 -10z"/>
<path d="M3700 2011 c0 -5 7 -11 14 -14 10 -4 13 -1 9 9 -6 15 -23 19 -23 5z"/>
<path d="M3680 1803 c0 -17 16 -31 27 -25 9 6 6 11 -7 20 -11 7 -20 9 -20 5z"/>
<path d="M3740 1785 c-11 -13 -10 -14 4 -9 9 3 16 10 16 15 0 13 -6 11 -20 -6z"/>
<path d="M6170 3511 c0 -5 8 -11 18 -14 9 -2 26 -8 37 -12 30 -12 6 9 -27 23
-16 6 -28 8 -28 3z"/>
<path d="M6160 3486 c0 -3 14 -12 30 -21 17 -9 30 -13 30 -11 0 3 -13 12 -30
21 -16 9 -30 13 -30 11z"/>
<path d="M2955 3441 c-3 -5 -1 -12 5 -16 5 -3 10 1 10 9 0 18 -6 21 -15 7z"/>
<path d="M3050 3418 c0 -36 4 -35 14 5 4 16 2 27 -4 27 -5 0 -10 -14 -10 -32z"/>
<path d="M3178 3443 c-2 -5 -1 -26 3 -48 l6 -40 2 48 c1 44 -3 57 -11 40z"/>
<path d="M6235 3440 c3 -5 8 -10 11 -10 2 0 4 5 4 10 0 6 -5 10 -11 10 -5 0
-7 -4 -4 -10z"/>
<path d="M3210 3430 c0 -5 5 -10 10 -10 6 0 10 5 10 10 0 6 -4 10 -10 10 -5 0
-10 -4 -10 -10z"/>
<path d="M3260 3426 c0 -9 5 -16 10 -16 6 0 10 4 10 9 0 6 -4 13 -10 16 -5 3
-10 -1 -10 -9z"/>
<path d="M2955 3401 c-3 -5 -1 -12 5 -16 5 -3 10 1 10 9 0 18 -6 21 -15 7z"/>
<path d="M6240 3395 c7 -8 17 -15 22 -15 6 0 5 7 -2 15 -7 8 -17 15 -22 15 -6
0 -5 -7 2 -15z"/>
<path d="M3220 3374 c0 -8 5 -12 10 -9 6 4 8 11 5 16 -9 14 -15 11 -15 -7z"/>
<path d="M3260 3376 c0 -9 5 -16 10 -16 6 0 10 4 10 9 0 6 -4 13 -10 16 -5 3
-10 -1 -10 -9z"/>
<path d="M1493 3267 c-88 -130 -115 -317 -73 -517 42 -200 88 -302 180 -399
59 -63 61 -64 80 -46 11 10 20 24 20 30 0 7 8 22 18 34 l17 21 28 -22 c43 -35
13 -83 -35 -57 -18 9 -24 8 -35 -7 -7 -10 -13 -21 -13 -25 0 -8 40 -24 53 -21
4 1 7 -2 7 -7 0 -6 17 -25 37 -44 31 -30 40 -34 61 -26 14 5 27 7 30 4 3 -3 0
-5 -6 -5 -7 0 -12 -6 -12 -13 0 -13 147 -87 173 -87 8 0 31 -7 50 -15 48 -20
54 -19 61 10 4 14 20 46 36 72 31 48 38 69 20 58 -5 -3 -10 -2 -10 4 0 22 -41
23 -60 1 -11 -12 -24 -19 -31 -15 -8 6 -8 10 2 16 11 7 11 9 1 9 -7 0 -10 5
-6 11 5 8 9 8 14 -1 8 -13 30 -6 30 9 0 4 -18 14 -40 21 -39 13 -49 23 -31 34
8 5 111 -44 139 -67 9 -7 24 -4 53 8 22 10 61 19 87 20 60 2 91 16 140 60 49
44 66 83 58 130 -8 42 -20 49 -171 100 -60 20 -126 46 -145 57 -52 30 -251
105 -285 107 -33 1 -58 21 -37 28 14 5 -96 130 -111 125 -5 -1 -6 2 -2 7 5 8
-17 64 -31 80 -2 2 -14 -4 -28 -12 -34 -23 -41 0 -10 33 21 23 23 30 14 60 -6
19 -10 48 -10 64 0 27 -1 28 -18 13 -12 -11 -22 -13 -34 -6 -16 9 -16 11 0 29
9 11 24 20 34 20 10 0 18 6 18 13 0 17 -109 51 -143 45 -19 -4 -29 3 -47 29
-29 43 -17 57 16 18 25 -30 17 -6 -9 28 -18 22 -18 22 -44 -16z m157 -107 c0
-5 -2 -10 -4 -10 -3 0 -8 5 -11 10 -3 6 -1 10 4 10 6 0 11 -4 11 -10z m-169
-74 c1 -12 1 -42 -1 -68 -2 -52 14 -68 69 -68 17 0 31 -5 31 -10 0 -21 -83 -2
-104 24 -12 14 -32 27 -46 29 -25 4 -25 4 2 6 24 1 28 6 33 45 4 26 2 52 -4
64 -16 30 -13 40 4 18 8 -11 16 -29 16 -40z m109 44 c-19 -13 -30 -13 -30 0 0
6 10 10 23 10 18 0 19 -2 7 -10z m-13 -72 c-3 -7 -5 -2 -5 12 0 14 2 19 5 13
2 -7 2 -19 0 -25z m-11 -54 c5 -43 -7 -24 -20 31 -5 22 -4 27 4 19 6 -6 13
-28 16 -50z m90 -79 c-33 -18 -36 -18 -36 -6 0 9 21 18 50 20 8 0 2 -6 -14
-14z m24 -15 c0 -5 -5 -10 -11 -10 -5 0 -7 5 -4 10 3 6 8 10 11 10 2 0 4 -4 4
-10z m65 -10 c-3 -5 -11 -10 -16 -10 -6 0 -7 5 -4 10 3 6 11 10 16 10 6 0 7
-4 4 -10z m-83 -13 c14 -7 23 -18 20 -25 -2 -7 2 -11 9 -10 7 2 17 -6 23 -18
6 -11 17 -19 24 -16 8 2 10 -2 5 -15 -6 -15 -4 -16 9 -5 13 10 17 10 21 0 3
-10 10 -8 26 6 25 22 29 15 5 -9 -16 -15 -16 -18 1 -33 10 -9 15 -12 11 -6 -3
7 1 15 10 18 24 9 28 1 12 -23 -15 -24 -36 -27 -44 -7 -3 8 -26 23 -50 33 -24
10 -44 23 -44 29 0 6 -16 29 -36 52 -39 46 -39 48 -2 29z m-96 -27 c18 0 36 5
39 10 14 22 24 -3 22 -53 -2 -47 0 -52 21 -55 13 -2 29 1 35 7 9 7 13 5 13
-10 0 -10 -3 -19 -6 -19 -15 1 -103 28 -92 29 7 1 12 16 12 41 l0 40 -40 0
c-36 0 -40 -3 -40 -24 0 -14 9 -31 20 -39 20 -14 19 -14 -7 -15 -16 -1 -48 -3
-73 -6 -42 -5 -37 -2 18 10 12 2 22 11 22 19 0 9 -10 15 -22 16 l-23 0 23 11
c14 7 22 20 22 37 0 19 3 22 12 13 7 -7 27 -12 44 -12z m179 10 c-3 -5 -11
-10 -16 -10 -6 0 -7 5 -4 10 3 6 11 10 16 10 6 0 7 -4 4 -10z m-311 -35 c3 -8
1 -15 -4 -15 -6 0 -10 7 -10 15 0 8 2 15 4 15 2 0 6 -7 10 -15z m356 1 c0 -3
-4 -8 -10 -11 -5 -3 -10 -1 -10 4 0 6 5 11 10 11 6 0 10 -2 10 -4z m-200 -181
c0 -8 -2 -15 -4 -15 -2 0 -11 -3 -20 -6 -11 -4 -16 -1 -16 11 0 11 5 15 16 11
8 -3 12 -2 9 4 -3 6 -1 10 4 10 6 0 11 -7 11 -15z m60 -7 c0 -4 -9 -8 -20 -8
-11 0 -20 4 -20 9 0 6 9 9 20 8 11 -1 20 -5 20 -9z m208 -8 c28 -23 21 -40
-16 -40 -20 0 -23 3 -13 9 8 5 21 7 30 4 11 -4 9 0 -4 10 -11 9 -32 17 -46 17
-30 0 -89 -19 -89 -29 0 -14 24 -31 45 -31 16 0 17 -2 5 -10 -8 -5 -25 -10
-36 -10 -12 0 -28 -10 -37 -22 -8 -13 -17 -21 -21 -18 -3 3 6 18 20 33 20 22
23 31 14 42 -6 8 -18 11 -27 8 -10 -4 -14 -2 -11 8 3 10 105 41 158 48 3 0 15
-8 28 -19z m-343 -30 c3 -5 -3 -10 -15 -10 -12 0 -18 5 -15 10 3 6 10 10 15
10 5 0 12 -4 15 -10z m600 0 c3 -6 -1 -7 -9 -4 -18 7 -21 14 -7 14 6 0 13 -4
16 -10z m-535 -10 c0 -5 -7 -10 -16 -10 -8 0 -12 5 -9 10 3 6 10 10 16 10 5 0
9 -4 9 -10z m75 0 c3 -5 1 -10 -4 -10 -6 0 -11 5 -11 10 0 6 2 10 4 10 3 0 8
-4 11 -10z m149 -5 c3 -8 1 -15 -3 -15 -5 0 -11 7 -15 15 -3 8 -1 15 3 15 5 0
11 -7 15 -15z m219 -3 c21 -23 39 -72 27 -72 -6 0 -10 -32 -10 -72 0 -81 -12
-87 -14 -6 0 29 -5 55 -10 58 -6 3 -9 -19 -7 -52 1 -33 -2 -58 -7 -58 -11 0
-20 132 -14 187 5 37 12 41 35 15z m-399 -1 c3 -5 -1 -12 -10 -15 -27 -11 -37
-7 -24 9 14 17 26 19 34 6z m-54 -17 c0 -7 -27 -34 -34 -34 -4 0 -1 9 6 20 12
19 28 27 28 14z m385 -34 c-3 -5 -13 -10 -21 -10 -8 0 -12 5 -9 10 3 6 13 10
21 10 8 0 12 -4 9 -10z m183 -15 c3 -18 3 -19 -10 -3 -7 9 -22 19 -33 21 -12
3 -8 5 10 4 21 -1 31 -8 33 -22z m-441 -44 c29 -10 98 -44 155 -74 57 -30 122
-65 146 -77 23 -12 44 -26 47 -30 7 -12 -16 -25 -24 -13 -3 5 -37 23 -75 41
-66 32 -69 32 -89 15 -20 -18 -20 -18 -2 10 15 24 16 27 1 21 -9 -3 -16 -10
-16 -15 0 -5 -5 -9 -10 -9 -7 0 -8 6 -1 17 10 19 12 17 -106 77 -39 20 -79 36
-87 36 -9 0 -16 5 -16 10 0 15 19 12 77 -9z m3 -41 c0 -5 -4 -10 -10 -10 -5 0
-10 5 -10 10 0 6 5 10 10 10 6 0 10 -4 10 -10z m90 -55 c0 -10 -16 -4 -40 16
l-25 20 33 -16 c17 -8 32 -18 32 -20z m45 -74 c-6 -5 -25 10 -25 20 0 5 6 4
14 -3 8 -7 12 -15 11 -17z m40 -1 c3 -6 -1 -7 -9 -4 -18 7 -21 14 -7 14 6 0
13 -4 16 -10z m92 -34 c26 -23 27 -26 12 -41 -21 -22 -52 -13 -69 21 -12 22
-12 27 0 34 21 14 26 13 57 -14z m86 -32 c3 -3 2 -16 -3 -29 -11 -28 4 -45 41
-45 15 0 32 -7 39 -15 11 -13 8 -14 -16 -12 -16 2 -38 9 -49 15 -11 6 -28 13
-38 16 -12 4 -15 10 -10 18 4 7 8 18 9 23 0 6 2 16 2 23 2 13 15 16 25 6z
m-163 -13 c14 -4 20 -10 15 -13 -6 -3 -23 0 -40 7 -32 14 -17 18 25 6z m35
-41 c-10 -11 -21 -18 -23 -15 -3 3 3 12 14 20 27 20 30 18 9 -5z m235 -21 c0
-6 -4 -7 -10 -4 -5 3 -10 11 -10 16 0 6 5 7 10 4 6 -3 10 -11 10 -16z m-223
-28 c10 -16 9 -18 -8 -14 -10 3 -19 12 -19 19 0 20 13 17 27 -5z m53 -17 c0
-8 -4 -12 -10 -9 -5 3 -10 10 -10 16 0 5 5 9 10 9 6 0 10 -7 10 -16z m82 -6
c-7 -7 -12 -8 -12 -2 0 6 3 14 7 17 3 4 9 5 12 2 2 -3 -1 -11 -7 -17z m-22 2
c0 -5 -2 -10 -4 -10 -3 0 -8 5 -11 10 -3 6 -1 10 4 10 6 0 11 -4 11 -10z"/>
<path d="M6150 2971 c0 -5 5 -13 10 -16 6 -3 10 -2 10 4 0 5 -4 13 -10 16 -5
3 -10 2 -10 -4z"/>
<path d="M3160 2555 c7 -9 15 -13 17 -11 7 7 -7 26 -19 26 -6 0 -6 -6 2 -15z"/>
<path d="M3170 2521 c0 -6 5 -13 10 -16 6 -3 10 1 10 9 0 9 -4 16 -10 16 -5 0
-10 -4 -10 -9z"/>
<path d="M3230 2462 c0 -15 -5 -33 -10 -38 -7 -7 -5 -17 4 -30 14 -18 15 -18
24 6 22 58 22 65 2 78 -18 11 -20 10 -20 -16z"/>
<path d="M2554 2455 c8 -33 -11 -100 -36 -121 -26 -24 -23 -41 4 -18 l22 19
-17 -25 c-11 -15 -27 -24 -44 -25 -21 0 -27 -5 -25 -17 2 -13 -6 -17 -39 -20
l-41 -3 61 -30 c33 -16 61 -36 61 -42 0 -7 5 -13 10 -13 11 0 13 30 4 54 -3 9
-10 16 -15 16 -4 0 -6 -7 -2 -16 4 -12 2 -15 -8 -12 -8 3 -15 14 -15 26 -1 17
4 22 22 22 12 0 26 5 29 10 8 13 136 13 169 0 34 -13 42 -50 28 -132 -14 -81
-55 -175 -105 -240 l-36 -47 26 -21 c14 -11 32 -20 40 -20 8 0 12 -4 9 -8 -3
-5 9 -17 27 -27 18 -10 35 -24 40 -31 5 -9 31 -13 78 -13 39 0 73 -2 77 -5 3
-3 -27 -6 -67 -6 l-72 0 23 -42 c12 -24 24 -45 25 -47 1 -2 13 10 27 25 13 16
28 26 32 21 4 -4 0 -13 -10 -20 -42 -31 -37 -187 11 -327 31 -91 43 -150 32
-150 -5 0 -9 15 -9 33 0 19 -3 37 -7 41 -5 4 -16 28 -26 54 -15 40 -16 42 -11
12 15 -85 15 -87 -3 -50 -15 31 -17 32 -21 13 -2 -12 2 -32 8 -43 13 -24 4
-43 -9 -21 -6 9 -18 -7 -41 -53 -103 -209 -372 -317 -648 -260 -155 32 -232
76 -355 200 -93 95 -92 94 -156 220 -78 154 -101 230 -101 339 0 50 -2 94 -5
97 -3 3 -17 3 -30 0 l-25 -4 2 -442 3 -441 25 0 c25 0 25 1 22 81 -2 69 0 84
18 107 29 36 60 34 128 -8 142 -86 279 -153 352 -172 58 -15 175 -29 321 -39
146 -10 391 44 509 113 105 62 265 250 309 363 26 67 61 223 61 273 0 29 -18
19 -31 -18 -10 -28 -18 -35 -39 -34 -23 0 -23 1 -5 9 11 4 29 24 40 44 11 20
24 36 29 36 12 0 1 160 -14 223 -7 26 -17 47 -22 47 -5 0 -6 15 -3 34 5 26 0
49 -23 99 -27 58 -35 67 -74 81 -38 14 -39 16 -10 11 29 -4 32 -3 22 15 -11
21 -18 24 -120 45 -41 9 -83 18 -92 21 -15 4 -18 -1 -18 -28 0 -48 -19 -110
-31 -102 -7 4 -7 10 0 17 14 14 14 112 1 138 -11 19 -2 26 16 10 11 -10 185
-54 190 -48 3 2 -29 36 -69 74 -59 55 -95 80 -178 119 -57 27 -128 61 -158 76
l-53 28 6 -25z m222 -230 c8 -53 8 -77 2 -76 -5 1 -12 1 -18 1 -6 0 -5 10 2
25 9 19 7 29 -6 50 -17 25 -17 27 0 23 9 -1 18 -12 20 -23z m-15 -122 c-8 -15
-10 -15 -11 -2 0 17 10 32 18 25 2 -3 -1 -13 -7 -23z m109 17 c0 -5 -4 -10
-10 -10 -5 0 -10 5 -10 10 0 6 5 10 10 10 6 0 10 -4 10 -10z m66 -38 c16 -8
20 -18 17 -37 -6 -26 -21 -27 -84 -3 -24 8 -25 12 -15 33 10 23 45 38 56 24 3
-3 15 -11 26 -17z m65 -55 c-7 -18 -15 -25 -26 -21 -13 5 -11 10 7 29 27 28
32 26 19 -8z m-259 -9 c-8 -8 -9 -4 -5 13 4 13 8 18 11 10 2 -7 -1 -18 -6 -23z
m56 2 c-5 -17 -15 -33 -21 -37 -7 -4 -8 0 -3 13 5 10 11 27 13 37 3 9 9 17 14
17 4 0 3 -14 -3 -30z m98 -5 c31 -14 63 -25 70 -25 8 0 14 -5 14 -11 0 -6 -9
-8 -21 -4 -37 12 -129 55 -129 60 0 8 7 6 66 -20z m176 -52 c-16 -26 -25 -28
-40 -10 -19 23 -24 58 -11 73 11 13 16 12 39 -13 25 -26 26 -30 12 -50z m-183
17 c48 -24 58 -33 54 -49 -4 -17 -8 -18 -31 -8 -15 6 -31 14 -37 18 -5 3 -23
9 -38 13 -21 5 -27 11 -23 22 3 9 6 20 6 25 0 13 5 12 69 -21z m-199 -41 c-7
-11 -14 -18 -17 -15 -3 3 0 12 7 21 18 21 23 19 10 -6z m80 11 c0 -5 -4 -10
-10 -10 -5 0 -10 5 -10 10 0 6 5 10 10 10 6 0 10 -4 10 -10z m254 -13 c11 -8
15 -19 10 -31 -7 -18 -8 -18 -15 2 -5 12 -15 22 -24 22 -8 0 -15 5 -15 10 0
14 23 12 44 -3z m-196 -8 c18 -6 29 -15 26 -20 -3 -5 -2 -14 2 -20 5 -8 9 -8
14 1 12 20 60 4 60 -20 0 -20 -1 -20 -30 -5 -16 9 -30 13 -30 10 0 -5 -47 18
-89 42 -3 2 8 23 13 23 2 0 17 -5 34 -11z m288 -10 c4 -8 -1 -9 -16 -4 -19 6
-22 4 -17 -10 4 -9 7 -19 7 -21 0 -3 6 -2 13 2 6 4 1 -6 -13 -22 -14 -16 -27
-31 -29 -34 -2 -3 -1 4 3 15 3 11 1 27 -4 34 -12 20 6 51 30 51 10 0 22 -5 26
-11z m-111 -17 c-3 -3 -11 0 -18 7 -9 10 -8 11 6 5 10 -3 15 -9 12 -12z m-288
-32 c-13 -21 -27 -26 -27 -10 0 6 5 10 10 10 6 0 10 7 10 16 0 8 4 12 10 9 6
-4 5 -13 -3 -25z m131 -16 c34 -15 62 -34 62 -41 0 -18 -1 -17 -86 18 -72 30
-82 38 -67 53 8 7 5 8 91 -30z m148 14 c10 -13 12 -17 4 -10 -20 18 -29 15
-23 -8 4 -14 0 -20 -11 -20 -17 0 -20 17 -10 44 8 22 17 20 40 -6z m121 -45
c-14 -26 -35 -59 -47 -73 l-22 -25 16 25 c9 14 28 49 42 78 14 29 28 51 31 49
2 -3 -7 -27 -20 -54z m-303 -7 c69 -30 112 -56 94 -56 -4 0 -36 14 -71 30 -36
17 -69 30 -74 30 -13 0 -50 29 -38 30 6 0 46 -15 89 -34z m146 -20 c0 -8 -7
-16 -15 -20 -10 -4 -15 1 -15 14 0 11 7 20 15 20 8 0 15 -6 15 -14z m-130 -27
c53 -27 22 -22 -35 7 -27 13 -39 21 -25 18 14 -4 41 -15 60 -25z m184 -23
c-10 -8 -21 -12 -24 -10 -5 6 21 24 34 24 6 0 1 -6 -10 -14z m-259 -6 c3 -5 2
-10 -4 -10 -5 0 -13 5 -16 10 -3 6 -2 10 4 10 5 0 13 -4 16 -10z m240 -80
c-34 -14 -67 -56 -63 -81 7 -51 52 -29 118 59 18 24 30 32 43 27 9 -4 17 -12
17 -17 0 -6 -7 -8 -15 -5 -22 9 -58 -42 -50 -73 10 -45 10 -53 -3 -57 -7 -3
-10 1 -6 10 3 9 0 25 -6 36 l-11 21 -32 -24 c-36 -28 -67 -20 -67 16 0 21 0
21 -25 -2 -32 -30 -40 -23 -11 10 40 46 96 90 114 89 14 0 14 -2 -3 -9z m-160
-108 c-3 -3 -11 0 -18 7 -9 10 -8 11 6 5 10 -3 15 -9 12 -12z m305 -68 l25
-15 -25 7 c-14 3 -32 10 -40 15 -13 7 -13 8 0 8 8 0 26 -6 40 -15z m-266 -123
c9 -30 16 -68 15 -85 -1 -23 -8 -9 -28 54 -26 79 -30 113 -11 93 5 -4 15 -32
24 -62z m45 -22 c7 -45 10 -83 7 -86 -7 -7 -12 8 -27 82 -6 33 -14 65 -16 72
-3 7 1 13 9 13 10 0 18 -23 27 -81z m21 52 c0 -17 5 -33 10 -36 6 -4 10 9 10
31 0 21 3 35 6 31 10 -10 -7 -157 -18 -151 -5 3 -8 20 -7 38 2 17 0 36 -3 41
-13 22 -19 75 -9 75 6 0 11 -13 11 -29z m58 -57 c-8 -72 -18 -97 -18 -47 0 50
12 123 20 118 3 -2 3 -34 -2 -71z m53 32 c-6 -7 -18 -31 -26 -52 l-15 -39 6
45 c8 54 11 60 31 60 12 0 13 -3 4 -14z m7 -96 c-7 -11 -17 -20 -22 -20 -5 0
-1 9 9 20 10 11 20 20 22 20 2 0 -2 -9 -9 -20z m-136 -60 c3 -16 1 -30 -4 -30
-4 0 -8 14 -8 30 0 17 2 30 4 30 2 0 6 -13 8 -30z m35 -7 c-3 -10 -5 -4 -5 12
0 17 2 24 5 18 2 -7 2 -21 0 -30z m57 22 c-4 -8 -10 -15 -15 -15 -4 0 -6 7 -3
15 4 8 10 15 15 15 4 0 6 -7 3 -15z m-164 -40 c0 -14 -4 -25 -10 -25 -5 0 -10
11 -10 25 0 14 5 25 10 25 6 0 10 -11 10 -25z"/>
<path d="M2895 1950 c3 -5 11 -10 16 -10 6 0 7 5 4 10 -3 6 -11 10 -16 10 -6
0 -7 -4 -4 -10z"/>
<path d="M3190 2466 c0 -8 5 -18 10 -21 6 -3 10 3 10 14 0 12 -4 21 -10 21 -5
0 -10 -6 -10 -14z"/>
<path d="M4769 2340 c-23 -19 -23 -19 -3 -20 20 0 44 17 44 32 0 14 -17 9 -41
-12z"/>
<path d="M6702 2263 c-6 -32 -25 -93 -42 -136 -17 -43 -28 -83 -24 -88 3 -5 0
-9 -6 -9 -6 0 -8 -5 -5 -10 3 -6 -1 -13 -9 -16 -24 -9 -19 -20 21 -44 46 -27
47 -26 98 103 41 102 41 120 3 205 l-24 53 -12 -58z m13 -83 c3 -5 1 -10 -4
-10 -6 0 -11 5 -11 10 0 6 2 10 4 10 3 0 8 -4 11 -10z m-19 -87 c-7 -7 -26 7
-26 19 0 6 6 6 15 -2 9 -7 13 -15 11 -17z m34 -13 c0 -5 -2 -10 -4 -10 -3 0
-8 5 -11 10 -3 6 -1 10 4 10 6 0 11 -4 11 -10z m-40 -20 c8 -5 12 -11 10 -14
-3 -2 -14 2 -24 10 -22 15 -10 19 14 4z"/>
<path d="M2640 2246 c0 -2 7 -7 16 -10 8 -3 12 -2 9 4 -6 10 -25 14 -25 6z"/>
<path d="M2540 2231 c0 -5 6 -13 13 -19 14 -12 135 -27 124 -16 -4 4 -19 10
-32 11 -13 2 -42 10 -65 18 -22 8 -40 10 -40 6z"/>
<path d="M2280 2218 c-28 -10 -58 -35 -71 -59 -6 -12 -2 -19 18 -28 21 -10 24
-9 20 3 -7 17 19 56 38 56 26 0 26 -20 1 -44 -31 -28 -32 -36 -6 -36 24 0 25
-4 3 -51 -23 -49 -37 -50 -28 -3 7 40 -3 54 -40 54 -16 0 -24 -10 -32 -42 -6
-24 -11 -43 -10 -44 39 -19 147 -48 148 -40 1 6 1 30 0 52 -2 30 2 43 13 47
21 8 32 -36 17 -69 -16 -37 -14 -44 15 -44 22 0 25 2 14 15 -10 12 -9 20 4 40
22 33 20 50 -6 64 -68 36 -69 37 -53 51 12 10 15 10 15 0 0 -9 5 -8 18 3 26
24 39 21 16 -4 -16 -17 -16 -22 -4 -29 22 -14 25 -13 37 20 6 17 16 30 22 30
8 0 9 -6 2 -18 -6 -11 -6 -24 0 -35 13 -23 29 -22 29 2 0 11 6 21 13 24 19 6
-10 35 -62 61 -58 29 -99 37 -131 24z m23 -213 c-7 -21 -13 -19 -13 6 0 11 4
18 10 14 5 -3 7 -12 3 -20z"/>
<path d="M2562 2169 c2 -6 8 -10 13 -10 5 0 11 4 13 10 2 6 -4 11 -13 11 -9 0
-15 -5 -13 -11z"/>
<path d="M2600 2161 c0 -10 60 -24 68 -16 8 8 0 12 -35 18 -18 4 -33 3 -33 -2z"/>
<path d="M2502 2119 c2 -6 8 -10 13 -10 5 0 11 4 13 10 2 6 -4 11 -13 11 -9 0
-15 -5 -13 -11z"/>
<path d="M2562 2106 c1 -10 8 -17 13 -17 15 1 12 24 -3 29 -9 3 -13 -2 -10
-12z"/>
<path d="M2610 2090 c0 -5 7 -10 15 -10 8 0 18 0 22 -1 4 0 9 4 11 10 2 6 -8
11 -22 11 -14 0 -26 -4 -26 -10z"/>
<path d="M3345 2090 c3 -5 8 -10 11 -10 2 0 4 5 4 10 0 6 -5 10 -11 10 -5 0
-7 -4 -4 -10z"/>
<path d="M2495 2080 c-3 -5 1 -10 10 -10 9 0 13 5 10 10 -3 6 -8 10 -10 10 -2
0 -7 -4 -10 -10z"/>
<path d="M3375 2080 c-3 -5 1 -10 10 -10 9 0 13 5 10 10 -3 6 -8 10 -10 10 -2
0 -7 -4 -10 -10z"/>
<path d="M6796 2074 c-4 -9 -4 -19 -1 -22 2 -3 7 3 11 12 4 9 4 19 1 22 -2 3
-7 -3 -11 -12z"/>
<path d="M2419 2050 c-1 -11 -2 -24 -3 -30 -2 -17 19 -12 32 9 12 17 11 21 -7
31 -18 9 -21 8 -22 -10z"/>
<path d="M2474 2015 c-8 -30 -1 -40 21 -31 10 3 15 15 13 28 -4 31 -26 34 -34
3z"/>
<path d="M3360 2030 c0 -5 5 -10 10 -10 6 0 10 5 10 10 0 6 -4 10 -10 10 -5 0
-10 -4 -10 -10z"/>
<path d="M2546 2014 c-3 -9 -6 -23 -6 -31 0 -13 3 -13 15 -3 16 13 21 50 6 50
-5 0 -12 -7 -15 -16z"/>
<path d="M2596 1981 c-15 -28 -24 -51 -22 -51 9 0 59 91 53 96 -3 3 -17 -17
-31 -45z"/>
<path d="M4735 1967 c-10 -23 -19 -48 -22 -54 -7 -16 83 -18 93 -2 8 14 -24
86 -41 93 -8 3 -20 -11 -30 -37z"/>
<path d="M3390 1980 c0 -5 7 -10 16 -10 8 0 12 5 9 10 -3 6 -10 10 -16 10 -5
0 -9 -4 -9 -10z"/>
<path d="M2406 1962 c-3 -6 -1 -14 5 -17 15 -10 25 3 12 16 -7 7 -13 7 -17 1z"/>
<path d="M5000 1924 c-17 -26 -30 -47 -28 -48 36 -19 107 -42 98 -31 -6 7 -8
25 -4 39 6 27 -12 86 -27 86 -4 0 -22 -21 -39 -46z m36 -52 c-4 -3 -12 0 -19
7 -9 11 -9 14 1 18 6 3 13 12 13 21 1 10 4 4 6 -11 3 -16 2 -31 -1 -35z"/>
<path d="M2450 1932 c0 -5 14 -15 31 -22 33 -14 60 -6 67 21 2 8 -3 6 -12 -5
-14 -17 -18 -18 -43 -6 -16 8 -31 16 -35 18 -5 2 -8 -1 -8 -6z"/>
<path d="M5221 1801 c-23 -31 -27 -51 -11 -51 7 0 54 18 68 26 6 3 -21 54 -29
54 -4 0 -17 -13 -28 -29z"/>
<path d="M3630 1302 c0 -5 14 -7 30 -4 17 2 30 6 30 8 0 2 -13 4 -30 4 -16 0
-30 -4 -30 -8z"/>
<path d="M3710 1291 c8 -5 33 -12 55 -15 28 -4 33 -3 15 2 -46 16 -86 23 -70
13z"/>
<path d="M3635 1270 c3 -5 8 -10 11 -10 2 0 4 5 4 10 0 6 -5 10 -11 10 -5 0
-7 -4 -4 -10z"/>
<path d="M7042 1090 c0 -14 2 -19 5 -12 2 6 2 18 0 25 -3 6 -5 1 -5 -13z"/>
<path d="M6831 1084 c0 -11 3 -14 6 -6 3 7 2 16 -1 19 -3 4 -6 -2 -5 -13z"/>
<path d="M6930 1080 c0 -5 5 -10 10 -10 6 0 10 5 10 10 0 6 -4 10 -10 10 -5 0
-10 -4 -10 -10z"/>
<path d="M6741 1058 c-1 -16 4 -28 9 -28 12 0 12 8 0 35 -8 18 -9 17 -9 -7z"/>
<path d="M7002 1045 c0 -16 2 -22 5 -12 2 9 2 23 0 30 -3 6 -5 -1 -5 -18z"/>
<path d="M7073 1045 l2 -30 -92 -3 c-88 -3 -92 -2 -96 20 l-4 23 -2 -22 c-1
-20 -7 -23 -40 -23 -22 0 -42 6 -45 13 -5 10 -7 10 -12 0 -3 -7 -11 -13 -19
-13 -7 0 -15 -13 -18 -29 -7 -35 -50 -87 -88 -106 -19 -10 -60 -15 -129 -15
-95 0 -100 -1 -100 -21 0 -21 1 -21 193 -15 105 3 342 9 524 12 186 4 330 10
327 15 -3 5 -21 9 -40 9 -41 0 -62 19 -105 94 -16 30 -39 58 -50 61 -10 4 -19
11 -19 16 0 5 -5 9 -11 9 -5 0 -7 -4 -4 -10 4 -6 -8 -10 -29 -10 -20 0 -36 5
-36 10 0 6 -5 10 -11 10 -5 0 -8 -4 -5 -9 7 -11 -28 -21 -52 -14 -10 2 -24 17
-30 31 l-11 27 2 -30z m43 -80 c7 -19 14 -40 14 -47 -1 -7 -7 1 -14 18 -19 43
-39 54 -30 17 l6 -28 -26 30 c-27 32 -33 24 -16 -21 14 -36 4 -44 -11 -8 l-12
29 -7 -25 -7 -25 -8 30 c-4 17 -12 35 -17 42 -7 9 4 13 44 16 29 2 57 4 61 5
4 1 15 -14 23 -33z m66 20 c4 -5 8 -17 8 -25 -1 -12 -3 -11 -11 3 -5 9 -15 17
-21 17 -6 0 -6 -6 2 -15 8 -10 9 -19 4 -25 -5 -5 -16 6 -25 25 -15 33 -15 33
10 31 14 0 29 -5 33 -11z m48 0 c0 -8 4 -15 10 -15 5 0 9 -9 7 -20 -4 -24 -17
-39 -17 -19 0 8 -7 26 -14 42 -13 23 -13 27 0 27 8 0 14 -7 14 -15z m-437 -1
c7 -8 -24 -74 -35 -74 -5 0 -1 14 9 30 16 27 16 32 3 40 -13 8 -13 10 1 10 9
0 18 -3 22 -6z m80 -11 c19 -17 20 -17 14 0 -5 14 0 17 33 17 21 0 41 -3 43
-7 11 -20 16 -63 8 -63 -5 0 -11 10 -13 23 -4 31 -58 38 -58 7 0 -17 -4 -20
-20 -15 -18 6 -25 -3 -21 -27 0 -5 -4 -8 -10 -8 -7 0 -8 7 -4 18 4 9 10 27 12
39 4 18 1 21 -15 16 -11 -2 -23 0 -26 6 -12 18 35 13 57 -6z m64 -50 c-3 -10
-5 -4 -5 12 0 17 2 24 5 18 2 -7 2 -21 0 -30z m263 7 c0 -5 -5 -10 -11 -10 -5
0 -7 5 -4 10 3 6 8 10 11 10 2 0 4 -4 4 -10z m-387 -15 c-3 -9 -8 -14 -10 -11
-3 3 -2 9 2 15 9 16 15 13 8 -4z m92 -5 c3 -5 1 -10 -4 -10 -6 0 -11 5 -11 10
0 6 2 10 4 10 3 0 8 -4 11 -10z"/>
<path d="M6930 1043 c0 -13 5 -23 10 -23 13 0 13 11 0 30 -8 12 -10 11 -10 -7z"/>
<path d="M7120 1045 c0 -8 4 -15 10 -15 5 0 7 7 4 15 -4 8 -8 15 -10 15 -2 0
-4 -7 -4 -15z"/>
<path d="M6831 1034 c0 -11 3 -14 6 -6 3 7 2 16 -1 19 -3 4 -6 -2 -5 -13z"/>
<path d="M2198 418 c-9 -7 -45 -78 -79 -156 -34 -79 -68 -146 -76 -149 -29
-11 -10 -23 37 -23 28 0 50 5 50 10 0 6 -9 10 -20 10 -23 0 -26 21 -9 69 11
30 12 31 73 31 l62 0 16 -50 c16 -48 15 -50 -3 -50 -10 0 -19 -4 -19 -10 0 -6
27 -10 60 -10 33 0 60 4 60 10 0 6 -6 10 -14 10 -21 0 -119 239 -119 292 0 15
-1 28 -2 28 -1 0 -8 -6 -17 -12z m6 -124 c10 -31 15 -58 13 -60 -3 -3 -25 -4
-50 -2 l-44 3 25 58 c13 31 28 57 31 57 4 0 15 -25 25 -56z"/>
<path d="M4128 418 c-9 -7 -45 -78 -79 -156 -34 -79 -68 -146 -76 -149 -29
-11 -10 -23 37 -23 28 0 50 5 50 10 0 6 -9 10 -20 10 -23 0 -26 21 -9 69 11
30 12 31 73 31 l62 0 16 -50 c16 -48 15 -50 -3 -50 -10 0 -19 -4 -19 -10 0 -6
27 -10 60 -10 33 0 60 4 60 10 0 6 -6 10 -14 10 -21 0 -119 239 -119 292 0 15
-1 28 -2 28 -1 0 -8 -6 -17 -12z m6 -124 c10 -31 15 -58 13 -60 -3 -3 -25 -4
-50 -2 l-44 3 25 58 c13 31 28 57 31 57 4 0 15 -25 25 -56z"/>
<path d="M4848 418 c-9 -7 -45 -78 -79 -156 -34 -79 -68 -146 -76 -149 -29
-11 -10 -23 37 -23 28 0 50 5 50 10 0 6 -9 10 -20 10 -23 0 -26 21 -9 69 11
30 12 31 73 31 l62 0 16 -50 c16 -48 15 -50 -3 -50 -10 0 -19 -4 -19 -10 0 -6
27 -10 60 -10 33 0 60 4 60 10 0 6 -6 10 -14 10 -21 0 -119 239 -119 292 0 15
-1 28 -2 28 -1 0 -8 -6 -17 -12z m6 -124 c10 -31 15 -58 13 -60 -3 -3 -25 -4
-50 -2 l-44 3 25 58 c13 31 28 57 31 57 4 0 15 -25 25 -56z"/>
<path d="M5958 418 c-9 -7 -45 -78 -79 -156 -34 -79 -68 -146 -76 -149 -29
-11 -10 -23 37 -23 28 0 50 5 50 10 0 6 -9 10 -20 10 -23 0 -26 21 -9 69 11
30 12 31 73 31 l62 0 16 -50 c16 -48 15 -50 -3 -50 -10 0 -19 -4 -19 -10 0 -6
27 -10 60 -10 33 0 60 4 60 10 0 6 -6 10 -14 10 -21 0 -119 239 -119 292 0 15
-1 28 -2 28 -1 0 -8 -6 -17 -12z m6 -124 c10 -31 15 -58 13 -60 -3 -3 -25 -4
-50 -2 l-44 3 25 58 c13 31 28 57 31 57 4 0 15 -25 25 -56z"/>
<path d="M7384 411 c-2 -2 -4 -13 -4 -25 0 -15 3 -17 12 -8 7 7 33 12 59 12
57 0 56 1 51 -162 -4 -108 -6 -118 -23 -118 -10 0 -19 -4 -19 -10 0 -6 30 -10
70 -10 40 0 70 4 70 10 0 6 -11 10 -25 10 l-25 0 0 140 0 140 41 0 c22 0 49
-5 60 -10 16 -9 19 -7 19 9 0 19 -8 20 -141 23 -77 2 -143 1 -145 -1z"/>
<path d="M8324 411 c-2 -2 -4 -13 -4 -25 0 -15 3 -17 12 -8 7 7 33 12 59 12
57 0 56 1 51 -162 -4 -108 -6 -118 -23 -118 -10 0 -19 -4 -19 -10 0 -6 30 -10
70 -10 40 0 70 4 70 10 0 6 -11 10 -25 10 l-25 0 0 140 0 140 41 0 c22 0 49
-5 60 -10 16 -9 19 -7 19 9 0 19 -8 20 -141 23 -77 2 -143 1 -145 -1z"/>
<path d="M440 392 c-24 -12 -37 -27 -44 -50 -14 -52 4 -78 78 -112 38 -17 67
-36 70 -48 10 -29 -10 -71 -36 -76 -13 -3 -32 -7 -43 -9 -14 -3 -12 -5 8 -6
42 -2 95 25 108 53 8 17 9 36 3 58 -8 27 -21 39 -77 66 -78 38 -96 62 -72 98
26 41 106 29 125 -19 8 -20 9 -19 9 10 1 26 -4 33 -30 42 -43 15 -58 14 -99
-7z"/>
<path d="M620 400 c0 -5 11 -10 25 -10 l25 0 0 -140 c0 -133 -1 -140 -20 -140
-11 0 -20 -4 -20 -10 0 -6 30 -10 70 -10 40 0 70 4 70 10 0 6 -11 10 -25 10
-24 0 -25 2 -25 75 l0 75 74 0 c43 0 78 -5 81 -11 4 -6 4 -39 0 -75 -6 -54
-10 -64 -26 -64 -10 0 -19 -4 -19 -10 0 -6 30 -10 70 -10 66 0 98 15 48 22
-22 3 -23 6 -26 141 l-3 137 26 0 c14 0 25 5 25 10 0 6 -32 10 -75 10 -43 0
-75 -4 -75 -10 0 -5 11 -10 25 -10 24 0 25 -3 25 -55 l0 -55 -75 0 -75 0 0 55
c0 52 1 55 25 55 14 0 25 5 25 10 0 6 -32 10 -75 10 -43 0 -75 -4 -75 -10z"/>
<path d="M1010 400 c0 -5 9 -10 20 -10 19 0 20 -7 21 -97 1 -54 4 -111 8 -127
9 -42 48 -66 112 -70 30 -2 43 -2 29 1 -47 8 -77 24 -89 49 -6 14 -11 74 -11
134 0 91 3 110 15 110 8 0 15 5 15 10 0 6 -27 10 -60 10 -33 0 -60 -4 -60 -10z"/>
<path d="M1250 400 c0 -5 9 -10 20 -10 27 0 33 -30 28 -144 -3 -84 -6 -97 -28
-122 -24 -25 -24 -26 -3 -15 35 18 43 43 47 138 2 49 4 100 5 116 1 17 7 27
16 27 8 0 15 5 15 10 0 6 -22 10 -50 10 -27 0 -50 -4 -50 -10z"/>
<path d="M1380 401 c0 -5 10 -11 23 -13 21 -3 22 -6 25 -140 2 -133 2 -138
-18 -138 -11 0 -20 -4 -20 -10 0 -14 139 -13 180 1 61 22 73 107 19 138 -35
20 -35 22 -4 51 33 31 33 72 -1 99 -23 18 -41 21 -115 21 -49 0 -89 -4 -89 -9z
m167 -33 c26 -25 29 -54 9 -84 -11 -16 -23 -19 -50 -16 l-36 4 0 59 c0 57 1
59 27 59 15 0 37 -10 50 -22z m8 -143 c46 -45 22 -115 -39 -115 -40 0 -46 11
-46 86 0 54 0 54 30 54 19 0 40 -9 55 -25z"/>
<path d="M1650 400 c0 -5 11 -10 25 -10 l25 0 0 -140 c0 -133 -1 -140 -20
-140 -11 0 -20 -4 -20 -10 0 -6 30 -10 70 -10 40 0 70 4 70 10 0 6 -11 10 -25
10 -24 0 -25 2 -25 75 l0 75 74 0 c43 0 78 -5 81 -11 4 -6 4 -39 0 -75 -6 -54
-10 -64 -26 -64 -10 0 -19 -4 -19 -10 0 -6 30 -10 70 -10 66 0 98 15 48 22
-22 3 -23 6 -26 141 l-3 137 26 0 c14 0 25 5 25 10 0 6 -32 10 -75 10 -43 0
-75 -4 -75 -10 0 -5 11 -10 25 -10 24 0 25 -3 25 -55 l0 -55 -75 0 -75 0 0 55
c0 52 1 55 25 55 14 0 25 5 25 10 0 6 -32 10 -75 10 -43 0 -75 -4 -75 -10z"/>
<path d="M2380 400 c0 -5 9 -10 19 -10 29 0 33 -28 26 -161 -6 -91 -11 -119
-21 -119 -8 0 -14 -4 -14 -10 0 -5 20 -10 45 -10 25 0 45 5 45 10 0 6 -9 10
-20 10 -19 0 -20 7 -20 121 0 66 4 119 9 117 5 -1 57 -61 117 -133 l109 -130
3 153 c2 144 4 152 22 152 11 0 20 5 20 10 0 6 -22 10 -50 10 -49 0 -68 -13
-32 -22 13 -4 21 -18 25 -44 10 -58 8 -176 -2 -172 -11 4 -128 142 -167 196
-26 38 -33 42 -71 42 -24 0 -43 -4 -43 -10z"/>
<path d="M2891 401 c-50 -13 -83 -42 -110 -94 -55 -110 19 -220 145 -216 25 1
24 2 -10 10 -48 11 -74 33 -92 76 -29 67 -10 151 41 191 49 39 173 20 176 -26
1 -9 5 -3 8 13 4 17 5 33 1 37 -10 12 -122 18 -159 9z"/>
<path d="M3130 400 c0 -5 7 -10 15 -10 13 0 15 -22 15 -140 0 -118 -2 -140
-15 -140 -8 0 -15 -4 -15 -10 0 -6 27 -10 60 -10 33 0 60 4 60 10 0 6 -9 10
-20 10 -19 0 -20 7 -20 140 0 118 2 140 15 140 8 0 15 5 15 10 0 6 -25 10 -55
10 -30 0 -55 -4 -55 -10z"/>
<path d="M3400 400 c0 -5 4 -10 9 -10 5 0 39 -68 77 -150 37 -83 71 -147 75
-143 4 5 26 51 49 103 23 52 46 99 50 103 4 5 29 -41 55 -102 27 -60 51 -108
55 -106 4 2 36 70 71 150 35 80 69 145 76 145 7 0 13 5 13 10 0 6 -20 10 -45
10 -25 0 -45 -4 -45 -10 0 -5 9 -10 21 -10 16 0 19 -4 14 -22 -10 -34 -77
-192 -85 -201 -4 -4 -29 43 -57 105 -44 101 -48 113 -31 116 41 7 14 22 -42
22 -33 0 -60 -4 -60 -10 0 -5 6 -10 14 -10 26 0 38 -51 22 -95 -29 -80 -58
-137 -66 -129 -5 5 -29 56 -53 114 -35 80 -42 106 -31 108 33 8 10 22 -36 22
-27 0 -50 -4 -50 -10z"/>
<path d="M4300 400 c0 -5 11 -10 25 -10 l25 0 0 -140 c0 -133 -1 -140 -20
-140 -11 0 -20 -4 -20 -10 0 -6 30 -10 70 -10 40 0 70 4 70 10 0 6 -11 10 -25
10 -24 0 -25 2 -25 75 l0 75 74 0 c43 0 78 -5 81 -11 4 -6 4 -39 0 -75 -6 -54
-10 -64 -26 -64 -10 0 -19 -4 -19 -10 0 -6 30 -10 70 -10 66 0 98 15 48 22
-22 3 -23 6 -26 141 l-3 137 26 0 c14 0 25 5 25 10 0 6 -32 10 -75 10 -43 0
-75 -4 -75 -10 0 -5 11 -10 25 -10 24 0 25 -3 25 -55 l0 -55 -75 0 -75 0 0 55
c0 52 1 55 25 55 14 0 25 5 25 10 0 6 -32 10 -75 10 -43 0 -75 -4 -75 -10z"/>
<path d="M5030 400 c0 -5 9 -10 19 -10 29 0 33 -28 26 -161 -6 -91 -11 -119
-21 -119 -8 0 -14 -4 -14 -10 0 -5 20 -10 45 -10 25 0 45 5 45 10 0 6 -9 10
-20 10 -19 0 -20 7 -20 121 0 66 4 119 9 117 5 -1 57 -61 117 -133 l109 -130
3 153 c2 144 4 152 22 152 11 0 20 5 20 10 0 6 -22 10 -50 10 -49 0 -68 -13
-32 -22 13 -4 21 -18 25 -44 10 -58 8 -176 -2 -172 -11 4 -128 142 -167 196
-26 38 -33 42 -71 42 -24 0 -43 -4 -43 -10z"/>
<path d="M5410 400 c0 -5 9 -10 20 -10 19 0 20 -7 20 -140 0 -133 -1 -140 -20
-140 -11 0 -20 -4 -20 -10 0 -6 46 -10 119 -10 93 0 120 3 124 14 5 12 -8 13
-74 9 l-79 -6 0 72 0 71 55 0 c50 0 55 -2 56 -22 1 -13 5 0 9 27 7 52 3 75 -7
37 -5 -20 -12 -22 -64 -22 -66 0 -66 1 -53 83 l7 37 51 0 c28 0 58 -4 66 -10
14 -8 29 3 30 23 0 4 -54 7 -120 7 -73 0 -120 -4 -120 -10z"/>
<path d="M6140 401 c0 -6 6 -11 14 -11 22 0 26 -24 26 -156 0 -117 -1 -124
-20 -124 -11 0 -20 -4 -20 -10 0 -6 28 -10 65 -10 62 0 91 15 43 22 -20 3 -23
10 -26 61 -3 55 -2 57 23 57 14 0 25 -4 25 -9 0 -5 21 -36 46 -70 44 -59 47
-61 90 -61 52 0 56 10 13 29 -17 7 -48 36 -70 63 l-40 51 23 15 c56 37 65 92
23 132 -22 21 -38 25 -120 28 -66 3 -95 1 -95 -7z m171 -40 c34 -35 36 -49 8
-85 -16 -20 -29 -26 -60 -26 l-39 0 0 70 0 70 31 0 c20 0 40 -10 60 -29z"/>
<path d="M6617 398 c-111 -31 -162 -173 -92 -256 27 -32 95 -56 141 -49 26 4
25 4 -8 6 -46 1 -93 39 -109 88 -14 43 -6 113 17 149 47 72 175 72 204 0 7
-18 9 -15 9 16 1 20 -3 39 -8 42 -18 12 -118 14 -154 4z"/>
<path d="M6820 400 c0 -5 11 -10 25 -10 l25 0 0 -140 c0 -133 -1 -140 -20
-140 -11 0 -20 -4 -20 -10 0 -6 30 -10 70 -10 40 0 70 4 70 10 0 6 -11 10 -25
10 -24 0 -25 2 -25 75 l0 75 74 0 c43 0 78 -5 81 -11 4 -6 4 -39 0 -75 -6 -54
-10 -64 -26 -64 -10 0 -19 -4 -19 -10 0 -6 30 -10 70 -10 66 0 98 15 48 22
-22 3 -23 6 -26 141 l-3 137 26 0 c14 0 25 5 25 10 0 6 -32 10 -75 10 -43 0
-75 -4 -75 -10 0 -5 11 -10 25 -10 24 0 25 -3 25 -55 l0 -55 -75 0 -75 0 0 55
c0 52 1 55 25 55 14 0 25 5 25 10 0 6 -32 10 -75 10 -43 0 -75 -4 -75 -10z"/>
<path d="M7220 400 c0 -5 7 -10 15 -10 13 0 15 -22 15 -140 0 -118 -2 -140
-15 -140 -8 0 -15 -4 -15 -10 0 -6 27 -10 60 -10 33 0 60 4 60 10 0 6 -9 10
-20 10 -19 0 -20 7 -20 140 0 118 2 140 15 140 8 0 15 5 15 10 0 6 -25 10 -55
10 -30 0 -55 -4 -55 -10z"/>
<path d="M7700 400 c0 -5 9 -10 20 -10 19 0 20 -7 20 -140 0 -133 -1 -140 -20
-140 -11 0 -20 -4 -20 -10 0 -6 46 -10 119 -10 93 0 120 3 124 14 5 12 -8 13
-74 9 l-79 -6 0 72 0 71 55 0 c50 0 55 -2 56 -22 1 -13 5 0 9 27 7 52 3 75 -7
37 -5 -20 -12 -22 -64 -22 -66 0 -66 1 -53 83 l7 37 51 0 c28 0 58 -4 66 -10
14 -8 29 3 30 23 0 4 -54 7 -120 7 -73 0 -120 -4 -120 -10z"/>
<path d="M8117 398 c-111 -31 -162 -173 -92 -256 27 -32 95 -56 141 -49 26 4
25 4 -8 6 -46 1 -93 39 -109 88 -14 43 -6 113 17 149 47 72 175 72 204 0 7
-18 9 -15 9 16 1 20 -3 39 -8 42 -18 12 -118 14 -154 4z"/>
<path d="M8710 392 c-24 -12 -37 -27 -44 -50 -14 -52 4 -78 78 -112 38 -17 67
-36 70 -48 10 -29 -10 -71 -36 -76 -13 -3 -32 -7 -43 -9 -14 -3 -12 -5 8 -6
42 -2 95 25 108 53 8 17 9 36 3 58 -8 27 -21 39 -77 66 -78 38 -96 62 -72 98
26 41 106 29 125 -19 8 -20 9 -19 9 10 1 26 -4 33 -30 42 -43 15 -58 14 -99
-7z"/>
<path d="M2950 240 c0 -5 14 -10 30 -10 29 0 30 -1 30 -49 0 -31 -5 -53 -15
-61 -22 -18 -13 -22 23 -9 31 10 32 13 32 65 0 47 2 54 20 54 11 0 20 5 20 10
0 6 -30 10 -70 10 -40 0 -70 -4 -70 -10z"/>
<path d="M391 149 c-1 -25 4 -39 15 -43 29 -11 37 -6 21 12 -9 9 -20 29 -26
42 -9 24 -10 23 -10 -11z"/>
<path d="M8661 149 c-1 -25 4 -39 15 -43 29 -11 37 -6 21 12 -9 9 -20 29 -26
42 -9 24 -10 23 -10 -11z"/>
<path d="M6765 147 c-6 -12 -21 -27 -35 -34 -14 -7 -19 -13 -12 -13 23 0 72
30 72 45 0 23 -15 25 -25 2z"/>
<path d="M8265 147 c-6 -12 -21 -27 -35 -34 -14 -7 -19 -13 -12 -13 23 0 72
30 72 45 0 23 -15 25 -25 2z"/>
</g>
</svg>
